G04 PROTEUS GERBER X2 FILE*
%TF.GenerationSoftware,Labcenter,Proteus,8.8-SP1-Build27031*%
%TF.CreationDate,2019-05-18T07:00:24+00:00*%
%TF.FileFunction,NonPlated,1,2,NPTH*%
%TF.FilePolarity,Positive*%
%TF.Part,Single*%
%TF.SameCoordinates,{a8659aba-65a4-4c0a-9c60-288927405768}*%
%FSLAX45Y45*%
%MOMM*%
G01*
%TA.AperFunction,Profile*%
%ADD19C,0.203200*%
%TD.AperFunction*%
D19*
X-5580000Y-8390000D02*
X+7260000Y-8390000D01*
X+7260000Y+1260000D01*
X-5580000Y+1260000D01*
X-5580000Y-8390000D01*
X+6320000Y-240800D02*
X+6320000Y-317000D01*
X+6396200Y-393200D01*
X+6472400Y-317000D01*
X+6472400Y-240800D01*
X+6523200Y-317000D02*
X+6675600Y-317000D01*
X+6599400Y-266200D02*
X+6599400Y-367800D01*
X+6320000Y-830800D02*
X+6320000Y-907000D01*
X+6396200Y-983200D01*
X+6472400Y-907000D01*
X+6472400Y-830800D01*
X+6548600Y-907000D02*
X+6675600Y-907000D01*
X+6441600Y-1532400D02*
X+6492400Y-1532400D01*
X+6492400Y-1583200D01*
X+6390800Y-1583200D01*
X+6340000Y-1532400D01*
X+6340000Y-1481600D01*
X+6390800Y-1430800D01*
X+6467000Y-1430800D01*
X+6492400Y-1456200D01*
X+6543200Y-1583200D02*
X+6543200Y-1430800D01*
X+6695600Y-1583200D01*
X+6695600Y-1430800D01*
X+6746400Y-1583200D02*
X+6746400Y-1430800D01*
X+6848000Y-1430800D01*
X+6898800Y-1481600D01*
X+6898800Y-1532400D01*
X+6848000Y-1583200D01*
X+6746400Y-1583200D01*
M02*
