G04 PROTEUS GERBER X2 FILE*
%TF.GenerationSoftware,Labcenter,Proteus,8.8-SP1-Build27031*%
%TF.CreationDate,2019-05-18T07:00:24+00:00*%
%TF.FileFunction,Copper,L1,Top*%
%TF.FilePolarity,Positive*%
%TF.Part,Single*%
%TF.SameCoordinates,{a8659aba-65a4-4c0a-9c60-288927405768}*%
%FSLAX45Y45*%
%MOMM*%
G01*
%TA.AperFunction,Conductor*%
%ADD10C,1.016000*%
%TA.AperFunction,ViaPad*%
%ADD11C,0.762000*%
%TA.AperFunction,Conductor*%
%ADD12C,0.254000*%
%TA.AperFunction,SMDPad,CuDef*%
%ADD13R,0.200000X0.300000*%
%TA.AperFunction,ComponentPad*%
%ADD14R,1.270000X1.270000*%
%ADD15C,1.270000*%
%TA.AperFunction,ComponentPad*%
%ADD16R,2.032000X2.032000*%
%TA.AperFunction,ComponentPad*%
%ADD17C,3.048000*%
%TA.AperFunction,ComponentPad*%
%ADD18C,1.778000*%
%TA.AperFunction,Profile*%
%ADD19C,0.203200*%
%TD.AperFunction*%
G36*
X+7160940Y-8290940D02*
X-5480940Y-8290940D01*
X-5480940Y+1160940D01*
X+7160940Y+1160940D01*
X+7160940Y-8290940D01*
G37*
%LPC*%
G36*
X+2415099Y-4244614D02*
X+2415099Y-4381386D01*
X+2318386Y-4478099D01*
X+2181614Y-4478099D01*
X+2123000Y-4419485D01*
X+2064386Y-4478099D01*
X+1927614Y-4478099D01*
X+1869000Y-4419485D01*
X+1810386Y-4478099D01*
X+1673614Y-4478099D01*
X+1615000Y-4419485D01*
X+1556386Y-4478099D01*
X+1419614Y-4478099D01*
X+1361000Y-4419485D01*
X+1302386Y-4478099D01*
X+1165614Y-4478099D01*
X+1107000Y-4419485D01*
X+1048386Y-4478099D01*
X+911614Y-4478099D01*
X+853000Y-4419485D01*
X+794386Y-4478099D01*
X+657614Y-4478099D01*
X+599000Y-4419485D01*
X+540386Y-4478099D01*
X+403614Y-4478099D01*
X+309079Y-4383564D01*
X+265344Y-4427299D01*
X+170656Y-4427299D01*
X+126921Y-4383564D01*
X+32386Y-4478099D01*
X-104386Y-4478099D01*
X-163000Y-4419485D01*
X-221614Y-4478099D01*
X-358386Y-4478099D01*
X-417000Y-4419485D01*
X-475614Y-4478099D01*
X-612386Y-4478099D01*
X-671000Y-4419485D01*
X-729614Y-4478099D01*
X-866386Y-4478099D01*
X-925000Y-4419485D01*
X-983614Y-4478099D01*
X-1120386Y-4478099D01*
X-1179000Y-4419485D01*
X-1237614Y-4478099D01*
X-1374386Y-4478099D01*
X-1433000Y-4419485D01*
X-1491614Y-4478099D01*
X-1628386Y-4478099D01*
X-1687000Y-4419485D01*
X-1745614Y-4478099D01*
X-1882386Y-4478099D01*
X-1941000Y-4419485D01*
X-1999614Y-4478099D01*
X-2136386Y-4478099D01*
X-2195000Y-4419485D01*
X-2253614Y-4478099D01*
X-2390386Y-4478099D01*
X-2410901Y-4457584D01*
X-2410901Y-4478099D01*
X-2741099Y-4478099D01*
X-2741099Y-4147901D01*
X-2410901Y-4147901D01*
X-2410901Y-4168416D01*
X-2390386Y-4147901D01*
X-2253614Y-4147901D01*
X-2195000Y-4206515D01*
X-2136386Y-4147901D01*
X-1999614Y-4147901D01*
X-1941000Y-4206515D01*
X-1882386Y-4147901D01*
X-1745614Y-4147901D01*
X-1687000Y-4206515D01*
X-1628386Y-4147901D01*
X-1491614Y-4147901D01*
X-1433000Y-4206515D01*
X-1374386Y-4147901D01*
X-1237614Y-4147901D01*
X-1179000Y-4206515D01*
X-1120386Y-4147901D01*
X-983614Y-4147901D01*
X-925000Y-4206515D01*
X-866386Y-4147901D01*
X-729614Y-4147901D01*
X-671000Y-4206515D01*
X-612386Y-4147901D01*
X-475614Y-4147901D01*
X-417000Y-4206515D01*
X-358386Y-4147901D01*
X-221614Y-4147901D01*
X-163000Y-4206515D01*
X-104386Y-4147901D01*
X+32386Y-4147901D01*
X+126921Y-4242436D01*
X+170656Y-4198701D01*
X+265344Y-4198701D01*
X+309079Y-4242436D01*
X+403614Y-4147901D01*
X+540386Y-4147901D01*
X+599000Y-4206515D01*
X+657614Y-4147901D01*
X+794386Y-4147901D01*
X+853000Y-4206515D01*
X+911614Y-4147901D01*
X+1048386Y-4147901D01*
X+1107000Y-4206515D01*
X+1165614Y-4147901D01*
X+1302386Y-4147901D01*
X+1361000Y-4206515D01*
X+1419614Y-4147901D01*
X+1556386Y-4147901D01*
X+1615000Y-4206515D01*
X+1673614Y-4147901D01*
X+1810386Y-4147901D01*
X+1869000Y-4206515D01*
X+1927614Y-4147901D01*
X+2064386Y-4147901D01*
X+2123000Y-4206515D01*
X+2181614Y-4147901D01*
X+2318386Y-4147901D01*
X+2415099Y-4244614D01*
G37*
G36*
X+956199Y-1404199D02*
X+956199Y-1658199D01*
X-212199Y-1658199D01*
X-212199Y-1607399D01*
X-313801Y-1607399D01*
X-313801Y-1658199D01*
X-364601Y-1658199D01*
X-364601Y-2701958D01*
X-337344Y-2674701D01*
X-242656Y-2674701D01*
X-198921Y-2718436D01*
X-104386Y-2623901D01*
X+32386Y-2623901D01*
X+91000Y-2682515D01*
X+149614Y-2623901D01*
X+286386Y-2623901D01*
X+345000Y-2682515D01*
X+403614Y-2623901D01*
X+540386Y-2623901D01*
X+599000Y-2682515D01*
X+657614Y-2623901D01*
X+794386Y-2623901D01*
X+853000Y-2682515D01*
X+911614Y-2623901D01*
X+1048386Y-2623901D01*
X+1107000Y-2682515D01*
X+1165614Y-2623901D01*
X+1302386Y-2623901D01*
X+1361000Y-2682515D01*
X+1419614Y-2623901D01*
X+1556386Y-2623901D01*
X+1615000Y-2682515D01*
X+1673614Y-2623901D01*
X+1810386Y-2623901D01*
X+1869000Y-2682515D01*
X+1927614Y-2623901D01*
X+2064386Y-2623901D01*
X+2123000Y-2682515D01*
X+2181614Y-2623901D01*
X+2318386Y-2623901D01*
X+2415099Y-2720614D01*
X+2415099Y-2857386D01*
X+2318386Y-2954099D01*
X+2181614Y-2954099D01*
X+2123000Y-2895485D01*
X+2064386Y-2954099D01*
X+1927614Y-2954099D01*
X+1869000Y-2895485D01*
X+1810386Y-2954099D01*
X+1673614Y-2954099D01*
X+1615000Y-2895485D01*
X+1556386Y-2954099D01*
X+1419614Y-2954099D01*
X+1361000Y-2895485D01*
X+1302386Y-2954099D01*
X+1165614Y-2954099D01*
X+1107000Y-2895485D01*
X+1048386Y-2954099D01*
X+911614Y-2954099D01*
X+853000Y-2895485D01*
X+794386Y-2954099D01*
X+657614Y-2954099D01*
X+599000Y-2895485D01*
X+540386Y-2954099D01*
X+403614Y-2954099D01*
X+345000Y-2895485D01*
X+286386Y-2954099D01*
X+149614Y-2954099D01*
X+91000Y-2895485D01*
X+32386Y-2954099D01*
X-104386Y-2954099D01*
X-198921Y-2859564D01*
X-242656Y-2903299D01*
X-337344Y-2903299D01*
X-381079Y-2859564D01*
X-475614Y-2954099D01*
X-612386Y-2954099D01*
X-671000Y-2895485D01*
X-729614Y-2954099D01*
X-866386Y-2954099D01*
X-925000Y-2895485D01*
X-983614Y-2954099D01*
X-1120386Y-2954099D01*
X-1179000Y-2895485D01*
X-1237614Y-2954099D01*
X-1374386Y-2954099D01*
X-1433000Y-2895485D01*
X-1491614Y-2954099D01*
X-1628386Y-2954099D01*
X-1687000Y-2895485D01*
X-1745614Y-2954099D01*
X-1882386Y-2954099D01*
X-1941000Y-2895485D01*
X-1999614Y-2954099D01*
X-2136386Y-2954099D01*
X-2195000Y-2895485D01*
X-2253614Y-2954099D01*
X-2390386Y-2954099D01*
X-2449000Y-2895485D01*
X-2507614Y-2954099D01*
X-2644386Y-2954099D01*
X-2741099Y-2857386D01*
X-2741099Y-2720614D01*
X-2644386Y-2623901D01*
X-2507614Y-2623901D01*
X-2449000Y-2682515D01*
X-2390386Y-2623901D01*
X-2253614Y-2623901D01*
X-2195000Y-2682515D01*
X-2136386Y-2623901D01*
X-1999614Y-2623901D01*
X-1941000Y-2682515D01*
X-1882386Y-2623901D01*
X-1745614Y-2623901D01*
X-1687000Y-2682515D01*
X-1628386Y-2623901D01*
X-1491614Y-2623901D01*
X-1433000Y-2682515D01*
X-1374386Y-2623901D01*
X-1237614Y-2623901D01*
X-1179000Y-2682515D01*
X-1120386Y-2623901D01*
X-983614Y-2623901D01*
X-925000Y-2682515D01*
X-866386Y-2623901D01*
X-729614Y-2623901D01*
X-671000Y-2682515D01*
X-669399Y-2680914D01*
X-669399Y-1658199D01*
X-720199Y-1658199D01*
X-720199Y-1607399D01*
X-923399Y-1607399D01*
X-923399Y-1404199D01*
X-974199Y-1404199D01*
X-974199Y-1353399D01*
X-1306117Y-1353399D01*
X-1402750Y-1256766D01*
X-1402750Y-1130514D01*
X-1313478Y-1041242D01*
X-1187226Y-1041242D01*
X-1179867Y-1048601D01*
X-974199Y-1048601D01*
X-974199Y-997801D01*
X+956199Y-997801D01*
X+956199Y-1404199D01*
G37*
G36*
X+3133832Y-5901801D02*
X+3302168Y-5901801D01*
X+3421199Y-6020832D01*
X+3421199Y-6189168D01*
X+3302168Y-6308199D01*
X+3133832Y-6308199D01*
X+3014801Y-6189168D01*
X+3014801Y-6020832D01*
X+3133832Y-5901801D01*
G37*
G36*
X+3471999Y-6500170D02*
X+3471999Y-6710590D01*
X+3327019Y-6855570D01*
X+3471999Y-7000550D01*
X+3471999Y-7210970D01*
X+3323210Y-7359759D01*
X+3112790Y-7359759D01*
X+2964001Y-7210970D01*
X+2964001Y-7000550D01*
X+3108981Y-6855570D01*
X+2964001Y-6710590D01*
X+2964001Y-6500170D01*
X+3112790Y-6351381D01*
X+3323210Y-6351381D01*
X+3471999Y-6500170D01*
G37*
G36*
X+1768099Y-6554614D02*
X+1768099Y-6691386D01*
X+1671386Y-6788099D01*
X+1534614Y-6788099D01*
X+1476000Y-6729485D01*
X+1417386Y-6788099D01*
X+1280614Y-6788099D01*
X+1222000Y-6729485D01*
X+1163386Y-6788099D01*
X+1026614Y-6788099D01*
X+1006099Y-6767584D01*
X+1006099Y-6788099D01*
X+675901Y-6788099D01*
X+675901Y-6457901D01*
X+1006099Y-6457901D01*
X+1006099Y-6478416D01*
X+1026614Y-6457901D01*
X+1163386Y-6457901D01*
X+1222000Y-6516515D01*
X+1280614Y-6457901D01*
X+1417386Y-6457901D01*
X+1476000Y-6516515D01*
X+1534614Y-6457901D01*
X+1671386Y-6457901D01*
X+1768099Y-6554614D01*
G37*
G36*
X+1768099Y-5792614D02*
X+1768099Y-5929386D01*
X+1671386Y-6026099D01*
X+1534614Y-6026099D01*
X+1476000Y-5967485D01*
X+1417386Y-6026099D01*
X+1280614Y-6026099D01*
X+1222000Y-5967485D01*
X+1163386Y-6026099D01*
X+1026614Y-6026099D01*
X+968000Y-5967485D01*
X+909386Y-6026099D01*
X+772614Y-6026099D01*
X+675901Y-5929386D01*
X+675901Y-5792614D01*
X+772614Y-5695901D01*
X+909386Y-5695901D01*
X+968000Y-5754515D01*
X+1026614Y-5695901D01*
X+1163386Y-5695901D01*
X+1222000Y-5754515D01*
X+1280614Y-5695901D01*
X+1417386Y-5695901D01*
X+1476000Y-5754515D01*
X+1534614Y-5695901D01*
X+1671386Y-5695901D01*
X+1768099Y-5792614D01*
G37*
G36*
X-151901Y-6573614D02*
X-151901Y-6710386D01*
X-248614Y-6807099D01*
X-385386Y-6807099D01*
X-479921Y-6712564D01*
X-523656Y-6756299D01*
X-618344Y-6756299D01*
X-662079Y-6712564D01*
X-756614Y-6807099D01*
X-893386Y-6807099D01*
X-913901Y-6786584D01*
X-913901Y-6807099D01*
X-1244099Y-6807099D01*
X-1244099Y-6476901D01*
X-913901Y-6476901D01*
X-913901Y-6497416D01*
X-893386Y-6476901D01*
X-756614Y-6476901D01*
X-662079Y-6571436D01*
X-618344Y-6527701D01*
X-523656Y-6527701D01*
X-479921Y-6571436D01*
X-385386Y-6476901D01*
X-248614Y-6476901D01*
X-151901Y-6573614D01*
G37*
G36*
X-151901Y-5811614D02*
X-151901Y-5948386D01*
X-248614Y-6045099D01*
X-385386Y-6045099D01*
X-444000Y-5986485D01*
X-502614Y-6045099D01*
X-639386Y-6045099D01*
X-698000Y-5986485D01*
X-756614Y-6045099D01*
X-893386Y-6045099D01*
X-952000Y-5986485D01*
X-1010614Y-6045099D01*
X-1147386Y-6045099D01*
X-1244099Y-5948386D01*
X-1244099Y-5811614D01*
X-1147386Y-5714901D01*
X-1010614Y-5714901D01*
X-952000Y-5773515D01*
X-893386Y-5714901D01*
X-756614Y-5714901D01*
X-698000Y-5773515D01*
X-639386Y-5714901D01*
X-502614Y-5714901D01*
X-444000Y-5773515D01*
X-385386Y-5714901D01*
X-248614Y-5714901D01*
X-151901Y-5811614D01*
G37*
G36*
X-1881901Y-6627614D02*
X-1881901Y-6764386D01*
X-1978614Y-6861099D01*
X-2115386Y-6861099D01*
X-2209921Y-6766564D01*
X-2253656Y-6810299D01*
X-2348344Y-6810299D01*
X-2392079Y-6766564D01*
X-2486614Y-6861099D01*
X-2623386Y-6861099D01*
X-2643901Y-6840584D01*
X-2643901Y-6861099D01*
X-2974099Y-6861099D01*
X-2974099Y-6530901D01*
X-2643901Y-6530901D01*
X-2643901Y-6551416D01*
X-2623386Y-6530901D01*
X-2486614Y-6530901D01*
X-2392079Y-6625436D01*
X-2348344Y-6581701D01*
X-2253656Y-6581701D01*
X-2209921Y-6625436D01*
X-2115386Y-6530901D01*
X-1978614Y-6530901D01*
X-1881901Y-6627614D01*
G37*
G36*
X-1881901Y-5865614D02*
X-1881901Y-6002386D01*
X-1978614Y-6099099D01*
X-2115386Y-6099099D01*
X-2174000Y-6040485D01*
X-2232614Y-6099099D01*
X-2369386Y-6099099D01*
X-2428000Y-6040485D01*
X-2486614Y-6099099D01*
X-2623386Y-6099099D01*
X-2682000Y-6040485D01*
X-2740614Y-6099099D01*
X-2877386Y-6099099D01*
X-2974099Y-6002386D01*
X-2974099Y-5865614D01*
X-2877386Y-5768901D01*
X-2740614Y-5768901D01*
X-2682000Y-5827515D01*
X-2623386Y-5768901D01*
X-2486614Y-5768901D01*
X-2428000Y-5827515D01*
X-2369386Y-5768901D01*
X-2232614Y-5768901D01*
X-2174000Y-5827515D01*
X-2115386Y-5768901D01*
X-1978614Y-5768901D01*
X-1881901Y-5865614D01*
G37*
G36*
X+5185299Y-6486656D02*
X+5185299Y-6495901D01*
X+5266386Y-6495901D01*
X+5363099Y-6592614D01*
X+5363099Y-6729386D01*
X+5266386Y-6826099D01*
X+5236099Y-6826099D01*
X+5236099Y-6856386D01*
X+5139386Y-6953099D01*
X+5002614Y-6953099D01*
X+4905901Y-6856386D01*
X+4905901Y-6719614D01*
X+5000436Y-6625079D01*
X+4956701Y-6581344D01*
X+4956701Y-6486656D01*
X+5023656Y-6419701D01*
X+5118344Y-6419701D01*
X+5185299Y-6486656D01*
G37*
G36*
X+3997501Y-5261907D02*
X+3997501Y-5104093D01*
X+4109093Y-4992501D01*
X+4266907Y-4992501D01*
X+4378499Y-5104093D01*
X+4378499Y-5261907D01*
X+4266907Y-5373499D01*
X+4109093Y-5373499D01*
X+3997501Y-5261907D01*
G37*
G36*
X+5013501Y-5261907D02*
X+5013501Y-5104093D01*
X+5125093Y-4992501D01*
X+5282907Y-4992501D01*
X+5394499Y-5104093D01*
X+5394499Y-5261907D01*
X+5282907Y-5373499D01*
X+5125093Y-5373499D01*
X+5013501Y-5261907D01*
G37*
G36*
X+1337499Y-5093093D02*
X+1337499Y-5250907D01*
X+1225907Y-5362499D01*
X+1068093Y-5362499D01*
X+956501Y-5250907D01*
X+956501Y-5093093D01*
X+1068093Y-4981501D01*
X+1225907Y-4981501D01*
X+1337499Y-5093093D01*
G37*
G36*
X+321499Y-5093093D02*
X+321499Y-5250907D01*
X+209907Y-5362499D01*
X+52093Y-5362499D01*
X-59499Y-5250907D01*
X-59499Y-5093093D01*
X+52093Y-4981501D01*
X+209907Y-4981501D01*
X+321499Y-5093093D01*
G37*
G36*
X-1819499Y-5258907D02*
X-1819499Y-5101093D01*
X-1707907Y-4989501D01*
X-1550093Y-4989501D01*
X-1438501Y-5101093D01*
X-1438501Y-5258907D01*
X-1550093Y-5370499D01*
X-1707907Y-5370499D01*
X-1819499Y-5258907D01*
G37*
G36*
X-803499Y-5258907D02*
X-803499Y-5101093D01*
X-691907Y-4989501D01*
X-534093Y-4989501D01*
X-422501Y-5101093D01*
X-422501Y-5258907D01*
X-534093Y-5370499D01*
X-691907Y-5370499D01*
X-803499Y-5258907D01*
G37*
G36*
X-1000501Y-7101093D02*
X-1000501Y-7258907D01*
X-1112093Y-7370499D01*
X-1269907Y-7370499D01*
X-1381499Y-7258907D01*
X-1381499Y-7101093D01*
X-1269907Y-6989501D01*
X-1112093Y-6989501D01*
X-1000501Y-7101093D01*
G37*
G36*
X-2016501Y-7101093D02*
X-2016501Y-7258907D01*
X-2128093Y-7370499D01*
X-2285907Y-7370499D01*
X-2397499Y-7258907D01*
X-2397499Y-7101093D01*
X-2285907Y-6989501D01*
X-2128093Y-6989501D01*
X-2016501Y-7101093D01*
G37*
G36*
X-3394499Y-5256907D02*
X-3394499Y-5099093D01*
X-3282907Y-4987501D01*
X-3125093Y-4987501D01*
X-3013501Y-5099093D01*
X-3013501Y-5256907D01*
X-3125093Y-5368499D01*
X-3282907Y-5368499D01*
X-3394499Y-5256907D01*
G37*
G36*
X-2378499Y-5256907D02*
X-2378499Y-5099093D01*
X-2266907Y-4987501D01*
X-2109093Y-4987501D01*
X-1997501Y-5099093D01*
X-1997501Y-5256907D01*
X-2109093Y-5368499D01*
X-2266907Y-5368499D01*
X-2378499Y-5256907D01*
G37*
G36*
X-3916907Y-5649501D02*
X-3759093Y-5649501D01*
X-3647501Y-5761093D01*
X-3647501Y-5918907D01*
X-3759093Y-6030499D01*
X-3916907Y-6030499D01*
X-4028499Y-5918907D01*
X-4028499Y-5761093D01*
X-3916907Y-5649501D01*
G37*
G36*
X-3916907Y-6665501D02*
X-3759093Y-6665501D01*
X-3647501Y-6777093D01*
X-3647501Y-6934907D01*
X-3759093Y-7046499D01*
X-3916907Y-7046499D01*
X-4028499Y-6934907D01*
X-4028499Y-6777093D01*
X-3916907Y-6665501D01*
G37*
G36*
X+3652489Y-1733362D02*
X+3652489Y-1859614D01*
X+3563216Y-1948887D01*
X+2325367Y-1948887D01*
X+2309292Y-1964962D01*
X+2183040Y-1964962D01*
X+2093768Y-1875690D01*
X+2093768Y-1749438D01*
X+2199117Y-1644089D01*
X+3563216Y-1644089D01*
X+3652489Y-1733362D01*
G37*
G36*
X+5327650Y-4981933D02*
X+5327650Y-4924067D01*
X+5368567Y-4883150D01*
X+5426433Y-4883150D01*
X+5467350Y-4924067D01*
X+5467350Y-4981933D01*
X+5426433Y-5022850D01*
X+5368567Y-5022850D01*
X+5327650Y-4981933D01*
G37*
G36*
X+5337027Y-4598521D02*
X+5337027Y-4540655D01*
X+5377944Y-4499738D01*
X+5435810Y-4499738D01*
X+5476727Y-4540655D01*
X+5476727Y-4598521D01*
X+5435810Y-4639438D01*
X+5377944Y-4639438D01*
X+5337027Y-4598521D01*
G37*
G36*
X+4352399Y-4336874D02*
X+4352399Y-4463126D01*
X+4263126Y-4552399D01*
X+3652423Y-4552399D01*
X+2358375Y-5846447D01*
X+2358375Y-6682398D01*
X+2269102Y-6771671D01*
X+2142850Y-6771671D01*
X+2053577Y-6682398D01*
X+2053577Y-5720197D01*
X+3526173Y-4247601D01*
X+4263126Y-4247601D01*
X+4352399Y-4336874D01*
G37*
G36*
X+5249315Y-1042517D02*
X+5249315Y-926787D01*
X+5331149Y-844953D01*
X+5446879Y-844953D01*
X+5528713Y-926787D01*
X+5528713Y-1042517D01*
X+5446879Y-1124351D01*
X+5331149Y-1124351D01*
X+5249315Y-1042517D01*
G37*
G36*
X+5362034Y-1523997D02*
X+5362034Y-1466131D01*
X+5402951Y-1425214D01*
X+5460817Y-1425214D01*
X+5501734Y-1466131D01*
X+5501734Y-1523997D01*
X+5460817Y-1564914D01*
X+5402951Y-1564914D01*
X+5362034Y-1523997D01*
G37*
G36*
X+5300301Y-447865D02*
X+5300301Y-332135D01*
X+5382135Y-250301D01*
X+5497865Y-250301D01*
X+5579699Y-332135D01*
X+5579699Y-447865D01*
X+5497865Y-529699D01*
X+5382135Y-529699D01*
X+5300301Y-447865D01*
G37*
%LPD*%
D10*
X-771000Y-1201000D02*
X-1242992Y-1201000D01*
X-1250352Y-1193640D01*
X-517000Y-1455000D02*
X-517000Y-2762000D01*
X-544000Y-2789000D01*
X-290000Y-2789000D02*
X-290000Y-1482000D01*
X-263000Y-1455000D01*
X+3500090Y-1796488D02*
X+2262242Y-1796488D01*
X+2246166Y-1812564D01*
X+5397500Y-4953000D02*
X+5397500Y-4578965D01*
X+5406877Y-4569588D01*
X+2205976Y-6619272D02*
X+2205976Y-5783322D01*
X+2222052Y-5767246D01*
X+3589298Y-4400000D01*
X+4200000Y-4400000D01*
D11*
X-1250352Y-1193640D03*
X+3500090Y-1796488D03*
X+2246166Y-1812564D03*
X+5397500Y-4953000D03*
X+5406877Y-4569588D03*
X+2205976Y-6619272D03*
X+4200000Y-4400000D03*
X+5389014Y-984652D03*
X+5431884Y-1495064D03*
X+5440000Y-390000D03*
D10*
X+7160940Y-8290940D02*
X-5480940Y-8290940D01*
X-5480940Y+1160940D01*
X+7160940Y+1160940D01*
X+7160940Y-8290940D01*
X+2415099Y-4244614D02*
X+2415099Y-4381386D01*
X+2318386Y-4478099D01*
X+2181614Y-4478099D01*
X+2123000Y-4419485D01*
X+2064386Y-4478099D01*
X+1927614Y-4478099D01*
X+1869000Y-4419485D01*
X+1810386Y-4478099D01*
X+1673614Y-4478099D01*
X+1615000Y-4419485D01*
X+1556386Y-4478099D01*
X+1419614Y-4478099D01*
X+1361000Y-4419485D01*
X+1302386Y-4478099D01*
X+1165614Y-4478099D01*
X+1107000Y-4419485D01*
X+1048386Y-4478099D01*
X+911614Y-4478099D01*
X+853000Y-4419485D01*
X+794386Y-4478099D01*
X+657614Y-4478099D01*
X+599000Y-4419485D01*
X+540386Y-4478099D01*
X+403614Y-4478099D01*
X+309079Y-4383564D01*
X+265344Y-4427299D01*
X+170656Y-4427299D01*
X+126921Y-4383564D01*
X+32386Y-4478099D01*
X-104386Y-4478099D01*
X-163000Y-4419485D01*
X-221614Y-4478099D01*
X-358386Y-4478099D01*
X-417000Y-4419485D01*
X-475614Y-4478099D01*
X-612386Y-4478099D01*
X-671000Y-4419485D01*
X-729614Y-4478099D01*
X-866386Y-4478099D01*
X-925000Y-4419485D01*
X-983614Y-4478099D01*
X-1120386Y-4478099D01*
X-1179000Y-4419485D01*
X-1237614Y-4478099D01*
X-1374386Y-4478099D01*
X-1433000Y-4419485D01*
X-1491614Y-4478099D01*
X-1628386Y-4478099D01*
X-1687000Y-4419485D01*
X-1745614Y-4478099D01*
X-1882386Y-4478099D01*
X-1941000Y-4419485D01*
X-1999614Y-4478099D01*
X-2136386Y-4478099D01*
X-2195000Y-4419485D01*
X-2253614Y-4478099D01*
X-2390386Y-4478099D01*
X-2410901Y-4457584D01*
X-2410901Y-4478099D01*
X-2741099Y-4478099D01*
X-2741099Y-4147901D01*
X-2410901Y-4147901D01*
X-2410901Y-4168416D01*
X-2390386Y-4147901D01*
X-2253614Y-4147901D01*
X-2195000Y-4206515D01*
X-2136386Y-4147901D01*
X-1999614Y-4147901D01*
X-1941000Y-4206515D01*
X-1882386Y-4147901D01*
X-1745614Y-4147901D01*
X-1687000Y-4206515D01*
X-1628386Y-4147901D01*
X-1491614Y-4147901D01*
X-1433000Y-4206515D01*
X-1374386Y-4147901D01*
X-1237614Y-4147901D01*
X-1179000Y-4206515D01*
X-1120386Y-4147901D01*
X-983614Y-4147901D01*
X-925000Y-4206515D01*
X-866386Y-4147901D01*
X-729614Y-4147901D01*
X-671000Y-4206515D01*
X-612386Y-4147901D01*
X-475614Y-4147901D01*
X-417000Y-4206515D01*
X-358386Y-4147901D01*
X-221614Y-4147901D01*
X-163000Y-4206515D01*
X-104386Y-4147901D01*
X+32386Y-4147901D01*
X+126921Y-4242436D01*
X+170656Y-4198701D01*
X+265344Y-4198701D01*
X+309079Y-4242436D01*
X+403614Y-4147901D01*
X+540386Y-4147901D01*
X+599000Y-4206515D01*
X+657614Y-4147901D01*
X+794386Y-4147901D01*
X+853000Y-4206515D01*
X+911614Y-4147901D01*
X+1048386Y-4147901D01*
X+1107000Y-4206515D01*
X+1165614Y-4147901D01*
X+1302386Y-4147901D01*
X+1361000Y-4206515D01*
X+1419614Y-4147901D01*
X+1556386Y-4147901D01*
X+1615000Y-4206515D01*
X+1673614Y-4147901D01*
X+1810386Y-4147901D01*
X+1869000Y-4206515D01*
X+1927614Y-4147901D01*
X+2064386Y-4147901D01*
X+2123000Y-4206515D01*
X+2181614Y-4147901D01*
X+2318386Y-4147901D01*
X+2415099Y-4244614D01*
X+956199Y-1404199D02*
X+956199Y-1658199D01*
X-212199Y-1658199D01*
X-212199Y-1607399D01*
X-313801Y-1607399D01*
X-313801Y-1658199D01*
X-364601Y-1658199D01*
X-364601Y-2701958D01*
X-337344Y-2674701D01*
X-242656Y-2674701D01*
X-198921Y-2718436D01*
X-104386Y-2623901D01*
X+32386Y-2623901D01*
X+91000Y-2682515D01*
X+149614Y-2623901D01*
X+286386Y-2623901D01*
X+345000Y-2682515D01*
X+403614Y-2623901D01*
X+540386Y-2623901D01*
X+599000Y-2682515D01*
X+657614Y-2623901D01*
X+794386Y-2623901D01*
X+853000Y-2682515D01*
X+911614Y-2623901D01*
X+1048386Y-2623901D01*
X+1107000Y-2682515D01*
X+1165614Y-2623901D01*
X+1302386Y-2623901D01*
X+1361000Y-2682515D01*
X+1419614Y-2623901D01*
X+1556386Y-2623901D01*
X+1615000Y-2682515D01*
X+1673614Y-2623901D01*
X+1810386Y-2623901D01*
X+1869000Y-2682515D01*
X+1927614Y-2623901D01*
X+2064386Y-2623901D01*
X+2123000Y-2682515D01*
X+2181614Y-2623901D01*
X+2318386Y-2623901D01*
X+2415099Y-2720614D01*
X+2415099Y-2857386D01*
X+2318386Y-2954099D01*
X+2181614Y-2954099D01*
X+2123000Y-2895485D01*
X+2064386Y-2954099D01*
X+1927614Y-2954099D01*
X+1869000Y-2895485D01*
X+1810386Y-2954099D01*
X+1673614Y-2954099D01*
X+1615000Y-2895485D01*
X+1556386Y-2954099D01*
X+1419614Y-2954099D01*
X+1361000Y-2895485D01*
X+1302386Y-2954099D01*
X+1165614Y-2954099D01*
X+1107000Y-2895485D01*
X+1048386Y-2954099D01*
X+911614Y-2954099D01*
X+853000Y-2895485D01*
X+794386Y-2954099D01*
X+657614Y-2954099D01*
X+599000Y-2895485D01*
X+540386Y-2954099D01*
X+403614Y-2954099D01*
X+345000Y-2895485D01*
X+286386Y-2954099D01*
X+149614Y-2954099D01*
X+91000Y-2895485D01*
X+32386Y-2954099D01*
X-104386Y-2954099D01*
X-198921Y-2859564D01*
X-242656Y-2903299D01*
X-337344Y-2903299D01*
X-381079Y-2859564D01*
X-475614Y-2954099D01*
X-612386Y-2954099D01*
X-671000Y-2895485D01*
X-729614Y-2954099D01*
X-866386Y-2954099D01*
X-925000Y-2895485D01*
X-983614Y-2954099D01*
X-1120386Y-2954099D01*
X-1179000Y-2895485D01*
X-1237614Y-2954099D01*
X-1374386Y-2954099D01*
X-1433000Y-2895485D01*
X-1491614Y-2954099D01*
X-1628386Y-2954099D01*
X-1687000Y-2895485D01*
X-1745614Y-2954099D01*
X-1882386Y-2954099D01*
X-1941000Y-2895485D01*
X-1999614Y-2954099D01*
X-2136386Y-2954099D01*
X-2195000Y-2895485D01*
X-2253614Y-2954099D01*
X-2390386Y-2954099D01*
X-2449000Y-2895485D01*
X-2507614Y-2954099D01*
X-2644386Y-2954099D01*
X-2741099Y-2857386D01*
X-2741099Y-2720614D01*
X-2644386Y-2623901D01*
X-2507614Y-2623901D01*
X-2449000Y-2682515D01*
X-2390386Y-2623901D01*
X-2253614Y-2623901D01*
X-2195000Y-2682515D01*
X-2136386Y-2623901D01*
X-1999614Y-2623901D01*
X-1941000Y-2682515D01*
X-1882386Y-2623901D01*
X-1745614Y-2623901D01*
X-1687000Y-2682515D01*
X-1628386Y-2623901D01*
X-1491614Y-2623901D01*
X-1433000Y-2682515D01*
X-1374386Y-2623901D01*
X-1237614Y-2623901D01*
X-1179000Y-2682515D01*
X-1120386Y-2623901D01*
X-983614Y-2623901D01*
X-925000Y-2682515D01*
X-866386Y-2623901D01*
X-729614Y-2623901D01*
X-671000Y-2682515D01*
X-669399Y-2680914D01*
X-669399Y-1658199D01*
X-720199Y-1658199D01*
X-720199Y-1607399D01*
X-923399Y-1607399D01*
X-923399Y-1404199D01*
X-974199Y-1404199D01*
X-974199Y-1353399D01*
X-1306117Y-1353399D01*
X-1402750Y-1256766D01*
X-1402750Y-1130514D01*
X-1313478Y-1041242D01*
X-1187226Y-1041242D01*
X-1179867Y-1048601D01*
X-974199Y-1048601D01*
X-974199Y-997801D01*
X+956199Y-997801D01*
X+956199Y-1404199D01*
X+3133832Y-5901801D02*
X+3302168Y-5901801D01*
X+3421199Y-6020832D01*
X+3421199Y-6189168D01*
X+3302168Y-6308199D01*
X+3133832Y-6308199D01*
X+3014801Y-6189168D01*
X+3014801Y-6020832D01*
X+3133832Y-5901801D01*
X+3471999Y-6500170D02*
X+3471999Y-6710590D01*
X+3327019Y-6855570D01*
X+3471999Y-7000550D01*
X+3471999Y-7210970D01*
X+3323210Y-7359759D01*
X+3112790Y-7359759D01*
X+2964001Y-7210970D01*
X+2964001Y-7000550D01*
X+3108981Y-6855570D01*
X+2964001Y-6710590D01*
X+2964001Y-6500170D01*
X+3112790Y-6351381D01*
X+3323210Y-6351381D01*
X+3471999Y-6500170D01*
X+1768099Y-6554614D02*
X+1768099Y-6691386D01*
X+1671386Y-6788099D01*
X+1534614Y-6788099D01*
X+1476000Y-6729485D01*
X+1417386Y-6788099D01*
X+1280614Y-6788099D01*
X+1222000Y-6729485D01*
X+1163386Y-6788099D01*
X+1026614Y-6788099D01*
X+1006099Y-6767584D01*
X+1006099Y-6788099D01*
X+675901Y-6788099D01*
X+675901Y-6457901D01*
X+1006099Y-6457901D01*
X+1006099Y-6478416D01*
X+1026614Y-6457901D01*
X+1163386Y-6457901D01*
X+1222000Y-6516515D01*
X+1280614Y-6457901D01*
X+1417386Y-6457901D01*
X+1476000Y-6516515D01*
X+1534614Y-6457901D01*
X+1671386Y-6457901D01*
X+1768099Y-6554614D01*
X+1768099Y-5792614D02*
X+1768099Y-5929386D01*
X+1671386Y-6026099D01*
X+1534614Y-6026099D01*
X+1476000Y-5967485D01*
X+1417386Y-6026099D01*
X+1280614Y-6026099D01*
X+1222000Y-5967485D01*
X+1163386Y-6026099D01*
X+1026614Y-6026099D01*
X+968000Y-5967485D01*
X+909386Y-6026099D01*
X+772614Y-6026099D01*
X+675901Y-5929386D01*
X+675901Y-5792614D01*
X+772614Y-5695901D01*
X+909386Y-5695901D01*
X+968000Y-5754515D01*
X+1026614Y-5695901D01*
X+1163386Y-5695901D01*
X+1222000Y-5754515D01*
X+1280614Y-5695901D01*
X+1417386Y-5695901D01*
X+1476000Y-5754515D01*
X+1534614Y-5695901D01*
X+1671386Y-5695901D01*
X+1768099Y-5792614D01*
X-151901Y-6573614D02*
X-151901Y-6710386D01*
X-248614Y-6807099D01*
X-385386Y-6807099D01*
X-479921Y-6712564D01*
X-523656Y-6756299D01*
X-618344Y-6756299D01*
X-662079Y-6712564D01*
X-756614Y-6807099D01*
X-893386Y-6807099D01*
X-913901Y-6786584D01*
X-913901Y-6807099D01*
X-1244099Y-6807099D01*
X-1244099Y-6476901D01*
X-913901Y-6476901D01*
X-913901Y-6497416D01*
X-893386Y-6476901D01*
X-756614Y-6476901D01*
X-662079Y-6571436D01*
X-618344Y-6527701D01*
X-523656Y-6527701D01*
X-479921Y-6571436D01*
X-385386Y-6476901D01*
X-248614Y-6476901D01*
X-151901Y-6573614D01*
X-151901Y-5811614D02*
X-151901Y-5948386D01*
X-248614Y-6045099D01*
X-385386Y-6045099D01*
X-444000Y-5986485D01*
X-502614Y-6045099D01*
X-639386Y-6045099D01*
X-698000Y-5986485D01*
X-756614Y-6045099D01*
X-893386Y-6045099D01*
X-952000Y-5986485D01*
X-1010614Y-6045099D01*
X-1147386Y-6045099D01*
X-1244099Y-5948386D01*
X-1244099Y-5811614D01*
X-1147386Y-5714901D01*
X-1010614Y-5714901D01*
X-952000Y-5773515D01*
X-893386Y-5714901D01*
X-756614Y-5714901D01*
X-698000Y-5773515D01*
X-639386Y-5714901D01*
X-502614Y-5714901D01*
X-444000Y-5773515D01*
X-385386Y-5714901D01*
X-248614Y-5714901D01*
X-151901Y-5811614D01*
X-1881901Y-6627614D02*
X-1881901Y-6764386D01*
X-1978614Y-6861099D01*
X-2115386Y-6861099D01*
X-2209921Y-6766564D01*
X-2253656Y-6810299D01*
X-2348344Y-6810299D01*
X-2392079Y-6766564D01*
X-2486614Y-6861099D01*
X-2623386Y-6861099D01*
X-2643901Y-6840584D01*
X-2643901Y-6861099D01*
X-2974099Y-6861099D01*
X-2974099Y-6530901D01*
X-2643901Y-6530901D01*
X-2643901Y-6551416D01*
X-2623386Y-6530901D01*
X-2486614Y-6530901D01*
X-2392079Y-6625436D01*
X-2348344Y-6581701D01*
X-2253656Y-6581701D01*
X-2209921Y-6625436D01*
X-2115386Y-6530901D01*
X-1978614Y-6530901D01*
X-1881901Y-6627614D01*
X-1881901Y-5865614D02*
X-1881901Y-6002386D01*
X-1978614Y-6099099D01*
X-2115386Y-6099099D01*
X-2174000Y-6040485D01*
X-2232614Y-6099099D01*
X-2369386Y-6099099D01*
X-2428000Y-6040485D01*
X-2486614Y-6099099D01*
X-2623386Y-6099099D01*
X-2682000Y-6040485D01*
X-2740614Y-6099099D01*
X-2877386Y-6099099D01*
X-2974099Y-6002386D01*
X-2974099Y-5865614D01*
X-2877386Y-5768901D01*
X-2740614Y-5768901D01*
X-2682000Y-5827515D01*
X-2623386Y-5768901D01*
X-2486614Y-5768901D01*
X-2428000Y-5827515D01*
X-2369386Y-5768901D01*
X-2232614Y-5768901D01*
X-2174000Y-5827515D01*
X-2115386Y-5768901D01*
X-1978614Y-5768901D01*
X-1881901Y-5865614D01*
X+5185299Y-6486656D02*
X+5185299Y-6495901D01*
X+5266386Y-6495901D01*
X+5363099Y-6592614D01*
X+5363099Y-6729386D01*
X+5266386Y-6826099D01*
X+5236099Y-6826099D01*
X+5236099Y-6856386D01*
X+5139386Y-6953099D01*
X+5002614Y-6953099D01*
X+4905901Y-6856386D01*
X+4905901Y-6719614D01*
X+5000436Y-6625079D01*
X+4956701Y-6581344D01*
X+4956701Y-6486656D01*
X+5023656Y-6419701D01*
X+5118344Y-6419701D01*
X+5185299Y-6486656D01*
X+3997501Y-5261907D02*
X+3997501Y-5104093D01*
X+4109093Y-4992501D01*
X+4266907Y-4992501D01*
X+4378499Y-5104093D01*
X+4378499Y-5261907D01*
X+4266907Y-5373499D01*
X+4109093Y-5373499D01*
X+3997501Y-5261907D01*
X+5013501Y-5261907D02*
X+5013501Y-5104093D01*
X+5125093Y-4992501D01*
X+5282907Y-4992501D01*
X+5394499Y-5104093D01*
X+5394499Y-5261907D01*
X+5282907Y-5373499D01*
X+5125093Y-5373499D01*
X+5013501Y-5261907D01*
X+1337499Y-5093093D02*
X+1337499Y-5250907D01*
X+1225907Y-5362499D01*
X+1068093Y-5362499D01*
X+956501Y-5250907D01*
X+956501Y-5093093D01*
X+1068093Y-4981501D01*
X+1225907Y-4981501D01*
X+1337499Y-5093093D01*
X+321499Y-5093093D02*
X+321499Y-5250907D01*
X+209907Y-5362499D01*
X+52093Y-5362499D01*
X-59499Y-5250907D01*
X-59499Y-5093093D01*
X+52093Y-4981501D01*
X+209907Y-4981501D01*
X+321499Y-5093093D01*
X-1819499Y-5258907D02*
X-1819499Y-5101093D01*
X-1707907Y-4989501D01*
X-1550093Y-4989501D01*
X-1438501Y-5101093D01*
X-1438501Y-5258907D01*
X-1550093Y-5370499D01*
X-1707907Y-5370499D01*
X-1819499Y-5258907D01*
X-803499Y-5258907D02*
X-803499Y-5101093D01*
X-691907Y-4989501D01*
X-534093Y-4989501D01*
X-422501Y-5101093D01*
X-422501Y-5258907D01*
X-534093Y-5370499D01*
X-691907Y-5370499D01*
X-803499Y-5258907D01*
X-1000501Y-7101093D02*
X-1000501Y-7258907D01*
X-1112093Y-7370499D01*
X-1269907Y-7370499D01*
X-1381499Y-7258907D01*
X-1381499Y-7101093D01*
X-1269907Y-6989501D01*
X-1112093Y-6989501D01*
X-1000501Y-7101093D01*
X-2016501Y-7101093D02*
X-2016501Y-7258907D01*
X-2128093Y-7370499D01*
X-2285907Y-7370499D01*
X-2397499Y-7258907D01*
X-2397499Y-7101093D01*
X-2285907Y-6989501D01*
X-2128093Y-6989501D01*
X-2016501Y-7101093D01*
X-3394499Y-5256907D02*
X-3394499Y-5099093D01*
X-3282907Y-4987501D01*
X-3125093Y-4987501D01*
X-3013501Y-5099093D01*
X-3013501Y-5256907D01*
X-3125093Y-5368499D01*
X-3282907Y-5368499D01*
X-3394499Y-5256907D01*
X-2378499Y-5256907D02*
X-2378499Y-5099093D01*
X-2266907Y-4987501D01*
X-2109093Y-4987501D01*
X-1997501Y-5099093D01*
X-1997501Y-5256907D01*
X-2109093Y-5368499D01*
X-2266907Y-5368499D01*
X-2378499Y-5256907D01*
X-3916907Y-5649501D02*
X-3759093Y-5649501D01*
X-3647501Y-5761093D01*
X-3647501Y-5918907D01*
X-3759093Y-6030499D01*
X-3916907Y-6030499D01*
X-4028499Y-5918907D01*
X-4028499Y-5761093D01*
X-3916907Y-5649501D01*
X-3916907Y-6665501D02*
X-3759093Y-6665501D01*
X-3647501Y-6777093D01*
X-3647501Y-6934907D01*
X-3759093Y-7046499D01*
X-3916907Y-7046499D01*
X-4028499Y-6934907D01*
X-4028499Y-6777093D01*
X-3916907Y-6665501D01*
X+3652489Y-1733362D02*
X+3652489Y-1859614D01*
X+3563216Y-1948887D01*
X+2325367Y-1948887D01*
X+2309292Y-1964962D01*
X+2183040Y-1964962D01*
X+2093768Y-1875690D01*
X+2093768Y-1749438D01*
X+2199117Y-1644089D01*
X+3563216Y-1644089D01*
X+3652489Y-1733362D01*
X+5327650Y-4981933D02*
X+5327650Y-4924067D01*
X+5368567Y-4883150D01*
X+5426433Y-4883150D01*
X+5467350Y-4924067D01*
X+5467350Y-4981933D01*
X+5426433Y-5022850D01*
X+5368567Y-5022850D01*
X+5327650Y-4981933D01*
X+5337027Y-4598521D02*
X+5337027Y-4540655D01*
X+5377944Y-4499738D01*
X+5435810Y-4499738D01*
X+5476727Y-4540655D01*
X+5476727Y-4598521D01*
X+5435810Y-4639438D01*
X+5377944Y-4639438D01*
X+5337027Y-4598521D01*
X+4352399Y-4336874D02*
X+4352399Y-4463126D01*
X+4263126Y-4552399D01*
X+3652423Y-4552399D01*
X+2358375Y-5846447D01*
X+2358375Y-6682398D01*
X+2269102Y-6771671D01*
X+2142850Y-6771671D01*
X+2053577Y-6682398D01*
X+2053577Y-5720197D01*
X+3526173Y-4247601D01*
X+4263126Y-4247601D01*
X+4352399Y-4336874D01*
X+5249315Y-1042517D02*
X+5249315Y-926787D01*
X+5331149Y-844953D01*
X+5446879Y-844953D01*
X+5528713Y-926787D01*
X+5528713Y-1042517D01*
X+5446879Y-1124351D01*
X+5331149Y-1124351D01*
X+5249315Y-1042517D01*
X+5362034Y-1523997D02*
X+5362034Y-1466131D01*
X+5402951Y-1425214D01*
X+5460817Y-1425214D01*
X+5501734Y-1466131D01*
X+5501734Y-1523997D01*
X+5460817Y-1564914D01*
X+5402951Y-1564914D01*
X+5362034Y-1523997D01*
X+5300301Y-447865D02*
X+5300301Y-332135D01*
X+5382135Y-250301D01*
X+5497865Y-250301D01*
X+5579699Y-332135D01*
X+5579699Y-447865D01*
X+5497865Y-529699D01*
X+5382135Y-529699D01*
X+5300301Y-447865D01*
D12*
X+218000Y-4427299D02*
X+218000Y-4313000D01*
X+218000Y-4198701D02*
X+218000Y-4313000D01*
X-290000Y-2674701D02*
X-290000Y-2789000D01*
X-290000Y-2903299D02*
X-290000Y-2789000D01*
X-923399Y-1455000D02*
X-771000Y-1455000D01*
X-771000Y-1607399D02*
X-771000Y-1455000D01*
X-263000Y-1607399D02*
X-263000Y-1455000D01*
X+3218000Y-5901801D02*
X+3218000Y-6105000D01*
X+3218000Y-6308199D02*
X+3218000Y-6105000D01*
X+3014801Y-6105000D02*
X+3218000Y-6105000D01*
X+3421199Y-6105000D02*
X+3218000Y-6105000D01*
X-571000Y-6756299D02*
X-571000Y-6642000D01*
X-571000Y-6527701D02*
X-571000Y-6642000D01*
X-2301000Y-6810299D02*
X-2301000Y-6696000D01*
X-2301000Y-6581701D02*
X-2301000Y-6696000D01*
X+5071000Y-6419701D02*
X+5071000Y-6534000D01*
X+4956701Y-6534000D02*
X+5071000Y-6534000D01*
D13*
X-7750000Y-7500000D03*
X+7750000Y-11750000D03*
X+3750000Y-10250000D03*
D14*
X-2576000Y-4313000D03*
D15*
X-2322000Y-4313000D03*
X-2068000Y-4313000D03*
X-1814000Y-4313000D03*
X-1560000Y-4313000D03*
X-1306000Y-4313000D03*
X-1052000Y-4313000D03*
X-798000Y-4313000D03*
X-544000Y-4313000D03*
X-290000Y-4313000D03*
X-36000Y-4313000D03*
X+218000Y-4313000D03*
X+472000Y-4313000D03*
X+726000Y-4313000D03*
X+980000Y-4313000D03*
X+1234000Y-4313000D03*
X+1488000Y-4313000D03*
X+1742000Y-4313000D03*
X+1996000Y-4313000D03*
X+2250000Y-4313000D03*
X+2250000Y-2789000D03*
X+1996000Y-2789000D03*
X+1742000Y-2789000D03*
X+1488000Y-2789000D03*
X+1234000Y-2789000D03*
X+980000Y-2789000D03*
X+726000Y-2789000D03*
X+472000Y-2789000D03*
X+218000Y-2789000D03*
X-36000Y-2789000D03*
X-290000Y-2789000D03*
X-544000Y-2789000D03*
X-798000Y-2789000D03*
X-1052000Y-2789000D03*
X-1306000Y-2789000D03*
X-1560000Y-2789000D03*
X-1814000Y-2789000D03*
X-2068000Y-2789000D03*
X-2322000Y-2789000D03*
X-2576000Y-2789000D03*
D16*
X-771000Y-1455000D03*
X-517000Y-1455000D03*
X-263000Y-1455000D03*
X-9000Y-1455000D03*
X+245000Y-1455000D03*
X+499000Y-1455000D03*
X+753000Y-1455000D03*
X+753000Y-1201000D03*
X+499000Y-1201000D03*
X+245000Y-1201000D03*
X-9000Y-1201000D03*
X-263000Y-1201000D03*
X-517000Y-1201000D03*
X-771000Y-1201000D03*
D17*
X+3218000Y-6105000D03*
X+3218000Y-6605380D03*
X+3218000Y-7105760D03*
D14*
X+841000Y-6623000D03*
D15*
X+1095000Y-6623000D03*
X+1349000Y-6623000D03*
X+1603000Y-6623000D03*
X+1603000Y-5861000D03*
X+1349000Y-5861000D03*
X+1095000Y-5861000D03*
X+841000Y-5861000D03*
D14*
X-1079000Y-6642000D03*
D15*
X-825000Y-6642000D03*
X-571000Y-6642000D03*
X-317000Y-6642000D03*
X-317000Y-5880000D03*
X-571000Y-5880000D03*
X-825000Y-5880000D03*
X-1079000Y-5880000D03*
D14*
X-2809000Y-6696000D03*
D15*
X-2555000Y-6696000D03*
X-2301000Y-6696000D03*
X-2047000Y-6696000D03*
X-2047000Y-5934000D03*
X-2301000Y-5934000D03*
X-2555000Y-5934000D03*
X-2809000Y-5934000D03*
X+5071000Y-6788000D03*
X+5198000Y-6661000D03*
X+5071000Y-6534000D03*
D18*
X+4188000Y-5183000D03*
X+5204000Y-5183000D03*
X+1147000Y-5172000D03*
X+131000Y-5172000D03*
X-1629000Y-5180000D03*
X-613000Y-5180000D03*
X-1191000Y-7180000D03*
X-2207000Y-7180000D03*
X-3204000Y-5178000D03*
X-2188000Y-5178000D03*
X-3838000Y-5840000D03*
X-3838000Y-6856000D03*
D19*
X-5580000Y-8390000D02*
X+7260000Y-8390000D01*
X+7260000Y+1260000D01*
X-5580000Y+1260000D01*
X-5580000Y-8390000D01*
X+6320000Y-240800D02*
X+6320000Y-317000D01*
X+6396200Y-393200D01*
X+6472400Y-317000D01*
X+6472400Y-240800D01*
X+6523200Y-317000D02*
X+6675600Y-317000D01*
X+6599400Y-266200D02*
X+6599400Y-367800D01*
X+6320000Y-830800D02*
X+6320000Y-907000D01*
X+6396200Y-983200D01*
X+6472400Y-907000D01*
X+6472400Y-830800D01*
X+6548600Y-907000D02*
X+6675600Y-907000D01*
X+6441600Y-1532400D02*
X+6492400Y-1532400D01*
X+6492400Y-1583200D01*
X+6390800Y-1583200D01*
X+6340000Y-1532400D01*
X+6340000Y-1481600D01*
X+6390800Y-1430800D01*
X+6467000Y-1430800D01*
X+6492400Y-1456200D01*
X+6543200Y-1583200D02*
X+6543200Y-1430800D01*
X+6695600Y-1583200D01*
X+6695600Y-1430800D01*
X+6746400Y-1583200D02*
X+6746400Y-1430800D01*
X+6848000Y-1430800D01*
X+6898800Y-1481600D01*
X+6898800Y-1532400D01*
X+6848000Y-1583200D01*
X+6746400Y-1583200D01*
M02*
