G04 PROTEUS GERBER X2 FILE*
%TF.GenerationSoftware,Labcenter,Proteus,8.8-SP1-Build27031*%
%TF.CreationDate,2019-05-18T07:00:24+00:00*%
%TF.FileFunction,Copper,L2,Bot*%
%TF.FilePolarity,Positive*%
%TF.Part,Single*%
%TF.SameCoordinates,{a8659aba-65a4-4c0a-9c60-288927405768}*%
%FSLAX45Y45*%
%MOMM*%
G01*
%TA.AperFunction,Conductor*%
%ADD10C,1.016000*%
%TA.AperFunction,ViaPad*%
%ADD11C,0.762000*%
%TA.AperFunction,Conductor*%
%ADD12C,0.254000*%
%TA.AperFunction,ComponentPad*%
%ADD14R,1.270000X1.270000*%
%ADD15C,1.270000*%
%TA.AperFunction,ComponentPad*%
%ADD16R,2.032000X2.032000*%
%TA.AperFunction,ComponentPad*%
%ADD17C,3.048000*%
%TA.AperFunction,ComponentPad*%
%ADD18C,1.778000*%
%TA.AperFunction,Profile*%
%ADD19C,0.203200*%
%TD.AperFunction*%
G36*
X+7160940Y-8290940D02*
X-5480940Y-8290940D01*
X-5480940Y+1160940D01*
X+7160940Y+1160940D01*
X+7160940Y-8290940D01*
G37*
%LPC*%
G36*
X+3155762Y-82738D02*
X+3390899Y-317875D01*
X+3390899Y-1690155D01*
X+3436964Y-1644090D01*
X+3563216Y-1644090D01*
X+3660527Y-1741401D01*
X+3660527Y-3410940D01*
X+2413784Y-4657683D01*
X+2125159Y-4657683D01*
X+1945575Y-4478099D01*
X+1927614Y-4478099D01*
X+1869000Y-4419485D01*
X+1810386Y-4478099D01*
X+1673614Y-4478099D01*
X+1615000Y-4419485D01*
X+1556386Y-4478099D01*
X+1419614Y-4478099D01*
X+1361000Y-4419485D01*
X+1302386Y-4478099D01*
X+1165614Y-4478099D01*
X+1107000Y-4419485D01*
X+1048386Y-4478099D01*
X+911614Y-4478099D01*
X+853000Y-4419485D01*
X+794386Y-4478099D01*
X+657614Y-4478099D01*
X+599000Y-4419485D01*
X+540386Y-4478099D01*
X+403614Y-4478099D01*
X+309079Y-4383564D01*
X+265344Y-4427299D01*
X+170656Y-4427299D01*
X+126921Y-4383564D01*
X+32386Y-4478099D01*
X-104386Y-4478099D01*
X-163000Y-4419485D01*
X-221614Y-4478099D01*
X-358386Y-4478099D01*
X-417000Y-4419485D01*
X-475614Y-4478099D01*
X-612386Y-4478099D01*
X-671000Y-4419485D01*
X-729614Y-4478099D01*
X-866386Y-4478099D01*
X-925000Y-4419485D01*
X-983614Y-4478099D01*
X-1120386Y-4478099D01*
X-1179000Y-4419485D01*
X-1237614Y-4478099D01*
X-1374386Y-4478099D01*
X-1433000Y-4419485D01*
X-1491614Y-4478099D01*
X-1628386Y-4478099D01*
X-1687000Y-4419485D01*
X-1745614Y-4478099D01*
X-1882386Y-4478099D01*
X-1941000Y-4419485D01*
X-1999614Y-4478099D01*
X-2136386Y-4478099D01*
X-2169601Y-4444884D01*
X-2169601Y-4692375D01*
X-2035601Y-4826375D01*
X-2035601Y-5060993D01*
X-1997501Y-5099093D01*
X-1997501Y-5256907D01*
X-2035601Y-5295007D01*
X-2035601Y-5714625D01*
X-2089877Y-5768901D01*
X-1978614Y-5768901D01*
X-1881901Y-5865614D01*
X-1881901Y-6002386D01*
X-1978614Y-6099099D01*
X-2115386Y-6099099D01*
X-2174000Y-6040485D01*
X-2232614Y-6099099D01*
X-2369386Y-6099099D01*
X-2428000Y-6040485D01*
X-2486614Y-6099099D01*
X-2623386Y-6099099D01*
X-2682000Y-6040485D01*
X-2740614Y-6099099D01*
X-2877386Y-6099099D01*
X-2974099Y-6002386D01*
X-2974099Y-5865614D01*
X-2877386Y-5768901D01*
X-2740614Y-5768901D01*
X-2707399Y-5802116D01*
X-2707399Y-5255125D01*
X-2857125Y-5105399D01*
X-3013501Y-5105399D01*
X-3013501Y-5256907D01*
X-3051601Y-5295007D01*
X-3051601Y-6134101D01*
X-2682375Y-6134101D01*
X-2402601Y-6413875D01*
X-2402601Y-6614914D01*
X-2392079Y-6625436D01*
X-2348344Y-6581701D01*
X-2253656Y-6581701D01*
X-2209921Y-6625436D01*
X-2115386Y-6530901D01*
X-1978614Y-6530901D01*
X-1965914Y-6543601D01*
X-1714875Y-6543601D01*
X-1625601Y-6632875D01*
X-1625601Y-6921875D01*
X-1549399Y-6998077D01*
X-1549399Y-6921875D01*
X-1460125Y-6832601D01*
X-469399Y-6832601D01*
X-469399Y-6723086D01*
X-479921Y-6712564D01*
X-523656Y-6756299D01*
X-618344Y-6756299D01*
X-639560Y-6735084D01*
X-698875Y-6794399D01*
X-743914Y-6794399D01*
X-756614Y-6807099D01*
X-893386Y-6807099D01*
X-913901Y-6786584D01*
X-913901Y-6807099D01*
X-1244099Y-6807099D01*
X-1244099Y-6565899D01*
X-1269625Y-6565899D01*
X-1549399Y-6286125D01*
X-1549399Y-5475125D01*
X-1654025Y-5370499D01*
X-1707907Y-5370499D01*
X-1819499Y-5258907D01*
X-1819499Y-5101093D01*
X-1707907Y-4989501D01*
X-1550093Y-4989501D01*
X-1438501Y-5101093D01*
X-1438501Y-5154975D01*
X-1244601Y-5348875D01*
X-1244601Y-6159875D01*
X-1143375Y-6261101D01*
X-126625Y-6261101D01*
X-21399Y-6155875D01*
X-21399Y-5289007D01*
X-59499Y-5250907D01*
X-59499Y-5105399D01*
X-322875Y-5105399D01*
X-418601Y-5201125D01*
X-418601Y-5748116D01*
X-385386Y-5714901D01*
X-248614Y-5714901D01*
X-151901Y-5811614D01*
X-151901Y-5948386D01*
X-248614Y-6045099D01*
X-385386Y-6045099D01*
X-444000Y-5986485D01*
X-502614Y-6045099D01*
X-639386Y-6045099D01*
X-698000Y-5986485D01*
X-756614Y-6045099D01*
X-893386Y-6045099D01*
X-952000Y-5986485D01*
X-1010614Y-6045099D01*
X-1147386Y-6045099D01*
X-1244099Y-5948386D01*
X-1244099Y-5811614D01*
X-1147386Y-5714901D01*
X-1010614Y-5714901D01*
X-977399Y-5748116D01*
X-977399Y-4952875D01*
X-634625Y-4610101D01*
X+952125Y-4610101D01*
X+1142625Y-4800601D01*
X+4035601Y-4800601D01*
X+4035601Y-4699374D01*
X+4124874Y-4610101D01*
X+5348607Y-4610101D01*
X+5337027Y-4598521D01*
X+5337027Y-4540655D01*
X+5377944Y-4499738D01*
X+5435810Y-4499738D01*
X+5476727Y-4540655D01*
X+5476727Y-4598521D01*
X+5465147Y-4610101D01*
X+5626101Y-4610101D01*
X+5626101Y-830841D01*
X+5287601Y-492341D01*
X+5287601Y-326874D01*
X+5376874Y-237601D01*
X+5503126Y-237601D01*
X+5592399Y-326874D01*
X+5592399Y-366091D01*
X+5930899Y-704591D01*
X+5930899Y-7683125D01*
X+5651125Y-7962899D01*
X-4127125Y-7962899D01*
X-4406899Y-7683125D01*
X-4406899Y-6193375D01*
X-4028499Y-5814975D01*
X-4028499Y-5761093D01*
X-3990399Y-5722993D01*
X-3990399Y-5080375D01*
X-3710625Y-4800601D01*
X-2730875Y-4800601D01*
X-2402601Y-5128875D01*
X-2402601Y-5650577D01*
X-2340399Y-5588375D01*
X-2340399Y-5295007D01*
X-2378499Y-5256907D01*
X-2378499Y-5099093D01*
X-2340399Y-5060993D01*
X-2340399Y-4952625D01*
X-2474399Y-4818625D01*
X-2474399Y-4478099D01*
X-2741099Y-4478099D01*
X-2741099Y-4147901D01*
X-2626425Y-4147901D01*
X-2263125Y-3784601D01*
X-696399Y-3784601D01*
X-696399Y-2920884D01*
X-729614Y-2954099D01*
X-866386Y-2954099D01*
X-925000Y-2895485D01*
X-983614Y-2954099D01*
X-1120386Y-2954099D01*
X-1179000Y-2895485D01*
X-1237614Y-2954099D01*
X-1374386Y-2954099D01*
X-1433000Y-2895485D01*
X-1491614Y-2954099D01*
X-1628386Y-2954099D01*
X-1687000Y-2895485D01*
X-1745614Y-2954099D01*
X-1882386Y-2954099D01*
X-1941000Y-2895485D01*
X-1999614Y-2954099D01*
X-2136386Y-2954099D01*
X-2195000Y-2895485D01*
X-2253614Y-2954099D01*
X-2390386Y-2954099D01*
X-2449000Y-2895485D01*
X-2507614Y-2954099D01*
X-2644386Y-2954099D01*
X-2741099Y-2857386D01*
X-2741099Y-2720614D01*
X-2644386Y-2623901D01*
X-2507614Y-2623901D01*
X-2449000Y-2682515D01*
X-2390386Y-2623901D01*
X-2253614Y-2623901D01*
X-2195000Y-2682515D01*
X-2136386Y-2623901D01*
X-1999614Y-2623901D01*
X-1941000Y-2682515D01*
X-1882386Y-2623901D01*
X-1745614Y-2623901D01*
X-1687000Y-2682515D01*
X-1628386Y-2623901D01*
X-1491614Y-2623901D01*
X-1433000Y-2682515D01*
X-1374386Y-2623901D01*
X-1237614Y-2623901D01*
X-1179000Y-2682515D01*
X-1120386Y-2623901D01*
X-983614Y-2623901D01*
X-925000Y-2682515D01*
X-866386Y-2623901D01*
X-799221Y-2623901D01*
X-1402751Y-2020371D01*
X-1402751Y-1130514D01*
X-1313478Y-1041241D01*
X-1187226Y-1041241D01*
X-1168399Y-1060068D01*
X-1168399Y-317875D01*
X-888625Y-38101D01*
X+3111125Y-38101D01*
X+3155762Y-82738D01*
G37*
G36*
X+5541412Y-921526D02*
X+5541412Y-1047778D01*
X+4352399Y-2236791D01*
X+4352399Y-4463126D01*
X+4263126Y-4552399D01*
X+4136874Y-4552399D01*
X+4047601Y-4463126D01*
X+4047601Y-2110541D01*
X+5325888Y-832254D01*
X+5452140Y-832254D01*
X+5541412Y-921526D01*
G37*
G36*
X+5362034Y-1523997D02*
X+5362034Y-1466131D01*
X+5402951Y-1425214D01*
X+5460817Y-1425214D01*
X+5501734Y-1466131D01*
X+5501734Y-1523997D01*
X+5460817Y-1564914D01*
X+5402951Y-1564914D01*
X+5362034Y-1523997D01*
G37*
%LPD*%
G36*
X+7160940Y-8290940D02*
X-5480940Y-8290940D01*
X-5480940Y+1160940D01*
X+7160940Y+1160940D01*
X+7160940Y-8290940D01*
G37*
%LPC*%
G36*
X+3155762Y-82738D02*
X+3390899Y-317875D01*
X+3390899Y-1690155D01*
X+3436964Y-1644090D01*
X+3563216Y-1644090D01*
X+3660527Y-1741401D01*
X+3660527Y-3410940D01*
X+2413784Y-4657683D01*
X+2125159Y-4657683D01*
X+1945575Y-4478099D01*
X+1927614Y-4478099D01*
X+1869000Y-4419485D01*
X+1810386Y-4478099D01*
X+1673614Y-4478099D01*
X+1615000Y-4419485D01*
X+1556386Y-4478099D01*
X+1419614Y-4478099D01*
X+1361000Y-4419485D01*
X+1302386Y-4478099D01*
X+1165614Y-4478099D01*
X+1107000Y-4419485D01*
X+1048386Y-4478099D01*
X+911614Y-4478099D01*
X+853000Y-4419485D01*
X+794386Y-4478099D01*
X+657614Y-4478099D01*
X+599000Y-4419485D01*
X+540386Y-4478099D01*
X+403614Y-4478099D01*
X+345000Y-4419485D01*
X+286386Y-4478099D01*
X+268425Y-4478099D01*
X+136423Y-4610101D01*
X+952125Y-4610101D01*
X+1142625Y-4800601D01*
X+4035601Y-4800601D01*
X+4035601Y-4699374D01*
X+4124874Y-4610101D01*
X+5254478Y-4610101D01*
X+5254478Y-1456946D01*
X+5368758Y-1342666D01*
X+5495010Y-1342666D01*
X+5584282Y-1431938D01*
X+5584282Y-1558190D01*
X+5559276Y-1583196D01*
X+5559276Y-4610101D01*
X+5626101Y-4610101D01*
X+5626101Y-830841D01*
X+5287601Y-492341D01*
X+5287601Y-326874D01*
X+5376874Y-237601D01*
X+5503126Y-237601D01*
X+5592399Y-326874D01*
X+5592399Y-366091D01*
X+5930899Y-704591D01*
X+5930899Y-7683125D01*
X+5651125Y-7962899D01*
X-4127125Y-7962899D01*
X-4406899Y-7683125D01*
X-4406899Y-6193375D01*
X-4028499Y-5814975D01*
X-4028499Y-5761093D01*
X-3990399Y-5722993D01*
X-3990399Y-5080375D01*
X-3710625Y-4800601D01*
X-2730875Y-4800601D01*
X-2402601Y-5128875D01*
X-2402601Y-5650577D01*
X-2340399Y-5588375D01*
X-2340399Y-5295007D01*
X-2378499Y-5256907D01*
X-2378499Y-5099093D01*
X-2340399Y-5060993D01*
X-2340399Y-4952625D01*
X-2474399Y-4818625D01*
X-2474399Y-4427299D01*
X-2690299Y-4427299D01*
X-2690299Y-4198701D01*
X-2461701Y-4198701D01*
X-2461701Y-4219216D01*
X-2390386Y-4147901D01*
X-2253614Y-4147901D01*
X-2195000Y-4206515D01*
X-2136386Y-4147901D01*
X-1999614Y-4147901D01*
X-1941000Y-4206515D01*
X-1882386Y-4147901D01*
X-1745614Y-4147901D01*
X-1687000Y-4206515D01*
X-1628386Y-4147901D01*
X-1491614Y-4147901D01*
X-1433000Y-4206515D01*
X-1374386Y-4147901D01*
X-1237614Y-4147901D01*
X-1179000Y-4206515D01*
X-1120386Y-4147901D01*
X-983614Y-4147901D01*
X-925000Y-4206515D01*
X-866386Y-4147901D01*
X-729614Y-4147901D01*
X-671000Y-4206515D01*
X-612386Y-4147901D01*
X-475614Y-4147901D01*
X-417000Y-4206515D01*
X-358386Y-4147901D01*
X-221614Y-4147901D01*
X-127079Y-4242436D01*
X-83344Y-4198701D01*
X+11344Y-4198701D01*
X+55079Y-4242436D01*
X+65601Y-4231914D01*
X+65601Y-3873125D01*
X-442399Y-3365125D01*
X-442399Y-2870086D01*
X-452921Y-2859564D01*
X-496656Y-2903299D01*
X-591344Y-2903299D01*
X-635079Y-2859564D01*
X-729614Y-2954099D01*
X-866386Y-2954099D01*
X-925000Y-2895485D01*
X-983614Y-2954099D01*
X-1120386Y-2954099D01*
X-1179000Y-2895485D01*
X-1237614Y-2954099D01*
X-1374386Y-2954099D01*
X-1433000Y-2895485D01*
X-1491614Y-2954099D01*
X-1628386Y-2954099D01*
X-1687000Y-2895485D01*
X-1745614Y-2954099D01*
X-1882386Y-2954099D01*
X-1941000Y-2895485D01*
X-1999614Y-2954099D01*
X-2136386Y-2954099D01*
X-2195000Y-2895485D01*
X-2253614Y-2954099D01*
X-2390386Y-2954099D01*
X-2449000Y-2895485D01*
X-2507614Y-2954099D01*
X-2644386Y-2954099D01*
X-2741099Y-2857386D01*
X-2741099Y-2720614D01*
X-2644386Y-2623901D01*
X-2507614Y-2623901D01*
X-2449000Y-2682515D01*
X-2390386Y-2623901D01*
X-2253614Y-2623901D01*
X-2195000Y-2682515D01*
X-2136386Y-2623901D01*
X-1999614Y-2623901D01*
X-1941000Y-2682515D01*
X-1882386Y-2623901D01*
X-1745614Y-2623901D01*
X-1687000Y-2682515D01*
X-1628386Y-2623901D01*
X-1491614Y-2623901D01*
X-1433000Y-2682515D01*
X-1374386Y-2623901D01*
X-1237614Y-2623901D01*
X-1179000Y-2682515D01*
X-1120386Y-2623901D01*
X-983614Y-2623901D01*
X-925000Y-2682515D01*
X-866386Y-2623901D01*
X-799221Y-2623901D01*
X-1402751Y-2020371D01*
X-1402751Y-1130514D01*
X-1313478Y-1041241D01*
X-1187226Y-1041241D01*
X-1168399Y-1060068D01*
X-1168399Y-317875D01*
X-888625Y-38101D01*
X+3111125Y-38101D01*
X+3155762Y-82738D01*
G37*
G36*
X+5541412Y-921526D02*
X+5541412Y-1047778D01*
X+4352399Y-2236791D01*
X+4352399Y-4463126D01*
X+4263126Y-4552399D01*
X+4136874Y-4552399D01*
X+4047601Y-4463126D01*
X+4047601Y-2110541D01*
X+5325888Y-832254D01*
X+5452140Y-832254D01*
X+5541412Y-921526D01*
G37*
%LPD*%
G36*
X-212199Y-1658199D02*
X-161399Y-1658199D01*
X-161399Y-1850875D01*
X-317125Y-2006601D01*
X-762375Y-2006601D01*
X-863601Y-1905375D01*
X-863601Y-1607399D01*
X-720199Y-1607399D01*
X-720199Y-1658199D01*
X-313801Y-1658199D01*
X-313801Y-1607399D01*
X-212199Y-1607399D01*
X-212199Y-1658199D01*
G37*
G36*
X-104386Y-2954099D02*
X+32386Y-2954099D01*
X+91000Y-2895485D01*
X+149614Y-2954099D01*
X+167575Y-2954099D01*
X+731375Y-3517899D01*
X+2829577Y-3517899D01*
X+2199575Y-4147901D01*
X+2181614Y-4147901D01*
X+2123000Y-4206515D01*
X+2064386Y-4147901D01*
X+1927614Y-4147901D01*
X+1869000Y-4206515D01*
X+1810386Y-4147901D01*
X+1673614Y-4147901D01*
X+1615000Y-4206515D01*
X+1556386Y-4147901D01*
X+1419614Y-4147901D01*
X+1361000Y-4206515D01*
X+1302386Y-4147901D01*
X+1165614Y-4147901D01*
X+1107000Y-4206515D01*
X+1048386Y-4147901D01*
X+911614Y-4147901D01*
X+853000Y-4206515D01*
X+794386Y-4147901D01*
X+657614Y-4147901D01*
X+599000Y-4206515D01*
X+540386Y-4147901D01*
X+403614Y-4147901D01*
X+309079Y-4242436D01*
X+265344Y-4198701D01*
X+170656Y-4198701D01*
X+126921Y-4242436D01*
X+32386Y-4147901D01*
X+14425Y-4147901D01*
X-348875Y-3784601D01*
X-391601Y-3784601D01*
X-391601Y-2870086D01*
X-381079Y-2859564D01*
X-337344Y-2903299D01*
X-242656Y-2903299D01*
X-198921Y-2859564D01*
X-104386Y-2954099D01*
G37*
G36*
X+5626101Y-5016125D02*
X+5626101Y-7556875D01*
X+5524875Y-7658101D01*
X-4000875Y-7658101D01*
X-4102101Y-7556875D01*
X-4102101Y-6319625D01*
X-3812975Y-6030499D01*
X-3759093Y-6030499D01*
X-3647501Y-5918907D01*
X-3647501Y-5761093D01*
X-3685601Y-5722993D01*
X-3685601Y-5206625D01*
X-3584375Y-5105399D01*
X-3394499Y-5105399D01*
X-3394499Y-5256907D01*
X-3356399Y-5295007D01*
X-3356399Y-6320625D01*
X-3327399Y-6349625D01*
X-3327399Y-6540875D01*
X-3490125Y-6703601D01*
X-3720993Y-6703601D01*
X-3759093Y-6665501D01*
X-3916907Y-6665501D01*
X-4028499Y-6777093D01*
X-4028499Y-6934907D01*
X-3916907Y-7046499D01*
X-3759093Y-7046499D01*
X-3720993Y-7008399D01*
X-3363875Y-7008399D01*
X-3022601Y-6667125D01*
X-3022601Y-6438899D01*
X-2808625Y-6438899D01*
X-2716623Y-6530901D01*
X-2974099Y-6530901D01*
X-2974099Y-6861099D01*
X-2707399Y-6861099D01*
X-2707399Y-7243125D01*
X-2618125Y-7332399D01*
X-2324007Y-7332399D01*
X-2285907Y-7370499D01*
X-2128093Y-7370499D01*
X-2016501Y-7258907D01*
X-2016501Y-7101093D01*
X-2128093Y-6989501D01*
X-2285907Y-6989501D01*
X-2324007Y-7027601D01*
X-2402601Y-7027601D01*
X-2402601Y-6777086D01*
X-2392079Y-6766564D01*
X-2348344Y-6810299D01*
X-2253656Y-6810299D01*
X-2209921Y-6766564D01*
X-2115386Y-6861099D01*
X-1978614Y-6861099D01*
X-1965914Y-6848399D01*
X-1930399Y-6848399D01*
X-1930399Y-7048125D01*
X-1650625Y-7327899D01*
X-1549399Y-7327899D01*
X-1549399Y-7492625D01*
X-1460125Y-7581899D01*
X+859625Y-7581899D01*
X+1653425Y-6788099D01*
X+1671386Y-6788099D01*
X+1684086Y-6775399D01*
X+2265373Y-6775399D01*
X+2358374Y-6682398D01*
X+2358374Y-6565899D01*
X+2692775Y-6565899D01*
X+2768601Y-6641726D01*
X+2768601Y-7302125D01*
X+3048375Y-7581899D01*
X+5108725Y-7581899D01*
X+5388499Y-7302125D01*
X+5388499Y-5588375D01*
X+5356399Y-5556275D01*
X+5356399Y-5300007D01*
X+5394499Y-5261907D01*
X+5394499Y-5104093D01*
X+5282907Y-4992501D01*
X+5125093Y-4992501D01*
X+5013501Y-5104093D01*
X+5013501Y-5261907D01*
X+5051601Y-5300007D01*
X+5051601Y-5682525D01*
X+5083701Y-5714625D01*
X+5083701Y-6419701D01*
X+5023656Y-6419701D01*
X+4956701Y-6486656D01*
X+4956701Y-6581344D01*
X+5000436Y-6625079D01*
X+4905901Y-6719614D01*
X+4905901Y-6737575D01*
X+4690115Y-6953361D01*
X+3424810Y-6953361D01*
X+3327019Y-6855570D01*
X+3471999Y-6710590D01*
X+3471999Y-6500170D01*
X+3323210Y-6351381D01*
X+3112790Y-6351381D01*
X+3037970Y-6426201D01*
X+2984125Y-6426201D01*
X+2819025Y-6261101D01*
X+1495375Y-6261101D01*
X+1298575Y-6457901D01*
X+1280614Y-6457901D01*
X+1247399Y-6491116D01*
X+1247399Y-6413125D01*
X+1501399Y-6159125D01*
X+1501399Y-5992884D01*
X+1534614Y-6026099D01*
X+1671386Y-6026099D01*
X+1768099Y-5929386D01*
X+1768099Y-5792614D01*
X+1671386Y-5695901D01*
X+1534614Y-5695901D01*
X+1501399Y-5729116D01*
X+1501399Y-5310875D01*
X+1337499Y-5146975D01*
X+1337499Y-5105399D01*
X+3997501Y-5105399D01*
X+3997501Y-5261907D01*
X+4109093Y-5373499D01*
X+4266907Y-5373499D01*
X+4378499Y-5261907D01*
X+4378499Y-5104093D01*
X+4352399Y-5077993D01*
X+4352399Y-4914899D01*
X+5336818Y-4914899D01*
X+5327650Y-4924067D01*
X+5327650Y-4981933D01*
X+5368567Y-5022850D01*
X+5426433Y-5022850D01*
X+5467350Y-4981933D01*
X+5467350Y-4924067D01*
X+5458182Y-4914899D01*
X+5524875Y-4914899D01*
X+5626101Y-5016125D01*
G37*
%LPC*%
G36*
X+3133832Y-5901801D02*
X+3302168Y-5901801D01*
X+3421199Y-6020832D01*
X+3421199Y-6189168D01*
X+3302168Y-6308199D01*
X+3133832Y-6308199D01*
X+3014801Y-6189168D01*
X+3014801Y-6020832D01*
X+3133832Y-5901801D01*
G37*
%LPD*%
G36*
X-466199Y-1625601D02*
X-567801Y-1625601D01*
X-567801Y-1607399D01*
X-466199Y-1607399D01*
X-466199Y-1625601D01*
G37*
G36*
X-387504Y-2653020D02*
X-452921Y-2718436D01*
X-496656Y-2674701D01*
X-591344Y-2674701D01*
X-635079Y-2718436D01*
X-729439Y-2624076D01*
X-416448Y-2624076D01*
X-387504Y-2653020D01*
G37*
D10*
X-263000Y-1201000D02*
X-263000Y-952500D01*
X-72500Y-762000D01*
X+2476500Y-762000D01*
X+2667000Y-952500D01*
X+2667000Y-3175000D01*
X+858000Y-3175000D01*
X+472000Y-2789000D01*
X+218000Y-2789000D02*
X+794500Y-3365500D01*
X+2857500Y-3365500D01*
X+2857500Y-762000D01*
X+2667000Y-571500D01*
X-317500Y-571500D01*
X-517000Y-771000D01*
X-517000Y-1201000D01*
X+2250000Y-2789000D02*
X+1874000Y-2413000D01*
X+444500Y-2413000D01*
X+245000Y-2213500D01*
X+245000Y-1455000D01*
X+2250000Y-4313000D02*
X+3238500Y-3324500D01*
X+3238500Y-381000D01*
X+3048000Y-190500D01*
X-825500Y-190500D01*
X-1016000Y-381000D01*
X-1016000Y-1968500D01*
X-825500Y-2159000D01*
X-254000Y-2159000D01*
X-9000Y-1914000D01*
X-9000Y-1455000D01*
X-9000Y-1201000D02*
X-9000Y-952500D01*
X+2286000Y-952500D01*
X+2476500Y-1143000D01*
X+2476500Y-2984500D01*
X+921500Y-2984500D01*
X+726000Y-2789000D01*
X-2188000Y-5178000D02*
X-2188000Y-4889500D01*
X-2322000Y-4755500D01*
X-2322000Y-4313000D01*
X-2188000Y-5178000D02*
X-2188000Y-5651500D01*
X-2301000Y-5764500D01*
X-2301000Y-5934000D01*
X+1079500Y-4953000D02*
X+889000Y-4762500D01*
X-571500Y-4762500D01*
X-825000Y-5016000D01*
X-825000Y-5880000D01*
X+1079500Y-4953000D02*
X+889000Y-5143500D01*
X+889000Y-5445500D01*
X+1095000Y-5651500D01*
X+1095000Y-5861000D01*
X-3838000Y-5840000D02*
X-3838000Y-5143500D01*
X-3647500Y-4953000D01*
X-2794000Y-4953000D01*
X-2555000Y-5192000D01*
X-2555000Y-5934000D01*
X+4200000Y-4953000D02*
X+1079500Y-4953000D01*
X+4200000Y-4953000D02*
X+4200000Y-5183000D01*
X+4188000Y-5183000D01*
X+4200000Y-4762500D02*
X+4200000Y-4953000D01*
X+4200000Y-4762500D02*
X+4188000Y-4762500D01*
X+2921000Y-6578600D02*
X+2755900Y-6413500D01*
X+1558500Y-6413500D01*
X+1349000Y-6623000D01*
X+5198000Y-6661000D02*
X+5236100Y-6699100D01*
X+5236100Y-7239000D01*
X+5045600Y-7429500D01*
X+3111500Y-7429500D01*
X+2921000Y-7239000D01*
X+2921000Y-6578600D01*
X+3111500Y-6578600D02*
X+2921000Y-6578600D01*
X+5198000Y-6661000D02*
X+5236100Y-6622900D01*
X+5236100Y-5651500D01*
X+5204000Y-5619400D01*
X+5204000Y-5183000D01*
X+3111500Y-6578600D02*
X+3218000Y-6578600D01*
X+3218000Y-6605380D01*
X+1349000Y-5861000D02*
X+1349000Y-6096000D01*
X+1095000Y-6350000D01*
X+1095000Y-6623000D01*
X+1349000Y-5861000D02*
X+1349000Y-5374000D01*
X+1147000Y-5172000D01*
X-762000Y-6413500D02*
X-63500Y-6413500D01*
X+131000Y-6219000D01*
X+131000Y-5172000D01*
X-762000Y-6413500D02*
X-1206500Y-6413500D01*
X-1397000Y-6223000D01*
X-1397000Y-5412000D01*
X-1629000Y-5180000D01*
X-762000Y-6604000D02*
X-762000Y-6413500D01*
X-762000Y-6604000D02*
X-762000Y-6642000D01*
X-825000Y-6642000D01*
X-613000Y-5180000D02*
X-386000Y-4953000D01*
X+190500Y-4953000D01*
X+381000Y-5143500D01*
X+381000Y-6985000D01*
X+186000Y-7180000D01*
X-1191000Y-7180000D01*
X-613000Y-5180000D02*
X-571000Y-5222000D01*
X-571000Y-5880000D01*
X-3175000Y-6286500D02*
X-3175000Y-6604000D01*
X-3427000Y-6856000D01*
X-3838000Y-6856000D01*
X-2555000Y-6696000D02*
X-2555000Y-7180000D01*
X-2207000Y-7180000D01*
X-2555000Y-6696000D02*
X-2555000Y-6477000D01*
X-2745500Y-6286500D01*
X-3175000Y-6286500D01*
X-3204000Y-6257500D01*
X-3204000Y-5178000D01*
X+3218000Y-7105760D02*
X+4753240Y-7105760D01*
X+5071000Y-6788000D01*
X-1397000Y-7175500D02*
X-1397000Y-7429500D01*
X+796500Y-7429500D01*
X+1603000Y-6623000D01*
X-1397000Y-7175500D02*
X-1397000Y-6985000D01*
X-317000Y-6985000D01*
X-317000Y-6642000D01*
X-1397000Y-7175500D02*
X-1587500Y-7175500D01*
X-1778000Y-6985000D01*
X-1778000Y-6696000D01*
X-2047000Y-6696000D01*
X+218000Y-4313000D02*
X+218000Y-3810000D01*
X-290000Y-3302000D01*
X-290000Y-2789000D01*
X-317500Y-1778000D02*
X-771000Y-1778000D01*
X-771000Y-1455000D01*
X-317500Y-1778000D02*
X-263000Y-1723500D01*
X-263000Y-1455000D01*
X+218000Y-4313000D02*
X-41000Y-4572000D01*
X-1651000Y-4572000D01*
X-1841500Y-4762500D01*
X-1841500Y-6096000D01*
X+4381500Y-5651500D02*
X+4381500Y-5844500D01*
X+5071000Y-6534000D01*
X-1841500Y-6096000D02*
X-1587500Y-6350000D01*
X-1587500Y-6604000D01*
X-1371650Y-6819850D01*
X-634500Y-6819850D01*
X-571000Y-6756350D01*
X-571000Y-6642000D01*
X+4381500Y-5651500D02*
X+3671500Y-5651500D01*
X+3218000Y-6105000D01*
X-2301000Y-6696000D02*
X-2301000Y-6477000D01*
X-2110500Y-6286500D01*
X-2032000Y-6286500D01*
X-1841500Y-6096000D01*
X-544000Y-2789000D02*
X-544000Y-3909500D01*
X-571500Y-3937000D01*
X-544000Y-3937000D02*
X-412000Y-3937000D01*
X-36000Y-4313000D01*
X-571500Y-3937000D02*
X-2200000Y-3937000D01*
X-2576000Y-4313000D01*
X-571500Y-3937000D02*
X-544000Y-3937000D01*
X-1250352Y-1193640D02*
X-1250352Y-1957246D01*
X-735921Y-2471677D01*
X-607314Y-2471677D01*
X-353323Y-2471677D01*
X-36000Y-2789000D01*
X+1996000Y-4313000D02*
X+2188284Y-4505284D01*
X+2350659Y-4505284D01*
X+3508128Y-3347815D01*
X+3508128Y-1804526D01*
X+3500090Y-1796488D01*
X+2246166Y-1812564D02*
X+759142Y-1812564D01*
X+520000Y-1573422D01*
X+520000Y-1556600D01*
X+499000Y-1455000D01*
X-2301000Y-6696000D02*
X-1968500Y-7028500D01*
X-1968500Y-7429500D01*
X-1778000Y-7620000D01*
X+5207000Y-7620000D01*
X+5397500Y-7429500D01*
X+5397500Y-4953000D01*
X+4572000Y-4953000D01*
X+4381500Y-5143500D01*
X+4381500Y-5651500D01*
X+5406877Y-4569588D02*
X+5406877Y-1520071D01*
X+5431884Y-1495064D01*
X+1603000Y-6623000D02*
X+2202248Y-6623000D01*
X+2205976Y-6619272D01*
X+4200000Y-4400000D02*
X+4200000Y-2173666D01*
X+5389014Y-984652D01*
X-3838000Y-5840000D02*
X-4254500Y-6256500D01*
X-4254500Y-7620000D01*
X-4064000Y-7810500D01*
X+5588000Y-7810500D01*
X+5778500Y-7620000D01*
X+5778500Y-4953000D01*
X+5588000Y-4762500D01*
X+4200000Y-4762500D01*
X+5778500Y-4953000D02*
X+5778500Y-767716D01*
X+5440000Y-429216D01*
X+5440000Y-390000D01*
D11*
X-1250352Y-1193640D03*
X+3500090Y-1796488D03*
X+2246166Y-1812564D03*
X+5397500Y-4953000D03*
X+5406877Y-4569588D03*
X+2205976Y-6619272D03*
X+4200000Y-4400000D03*
X+5389014Y-984652D03*
X+5431884Y-1495064D03*
X+5440000Y-390000D03*
D10*
X+7160940Y-8290940D02*
X-5480940Y-8290940D01*
X-5480940Y+1160940D01*
X+7160940Y+1160940D01*
X+7160940Y-8290940D01*
X+3155762Y-82738D02*
X+3390899Y-317875D01*
X+3390899Y-1690155D01*
X+3436964Y-1644090D01*
X+3563216Y-1644090D01*
X+3660527Y-1741401D01*
X+3660527Y-3410940D01*
X+2413784Y-4657683D01*
X+2125159Y-4657683D01*
X+1945575Y-4478099D01*
X+1927614Y-4478099D01*
X+1869000Y-4419485D01*
X+1810386Y-4478099D01*
X+1673614Y-4478099D01*
X+1615000Y-4419485D01*
X+1556386Y-4478099D01*
X+1419614Y-4478099D01*
X+1361000Y-4419485D01*
X+1302386Y-4478099D01*
X+1165614Y-4478099D01*
X+1107000Y-4419485D01*
X+1048386Y-4478099D01*
X+911614Y-4478099D01*
X+853000Y-4419485D01*
X+794386Y-4478099D01*
X+657614Y-4478099D01*
X+599000Y-4419485D01*
X+540386Y-4478099D01*
X+403614Y-4478099D01*
X+309079Y-4383564D01*
X+265344Y-4427299D01*
X+170656Y-4427299D01*
X+126921Y-4383564D01*
X+32386Y-4478099D01*
X-104386Y-4478099D01*
X-163000Y-4419485D01*
X-221614Y-4478099D01*
X-358386Y-4478099D01*
X-417000Y-4419485D01*
X-475614Y-4478099D01*
X-612386Y-4478099D01*
X-671000Y-4419485D01*
X-729614Y-4478099D01*
X-866386Y-4478099D01*
X-925000Y-4419485D01*
X-983614Y-4478099D01*
X-1120386Y-4478099D01*
X-1179000Y-4419485D01*
X-1237614Y-4478099D01*
X-1374386Y-4478099D01*
X-1433000Y-4419485D01*
X-1491614Y-4478099D01*
X-1628386Y-4478099D01*
X-1687000Y-4419485D01*
X-1745614Y-4478099D01*
X-1882386Y-4478099D01*
X-1941000Y-4419485D01*
X-1999614Y-4478099D01*
X-2136386Y-4478099D01*
X-2169601Y-4444884D01*
X-2169601Y-4692375D01*
X-2035601Y-4826375D01*
X-2035601Y-5060993D01*
X-1997501Y-5099093D01*
X-1997501Y-5256907D01*
X-2035601Y-5295007D01*
X-2035601Y-5714625D01*
X-2089877Y-5768901D01*
X-1978614Y-5768901D01*
X-1881901Y-5865614D01*
X-1881901Y-6002386D01*
X-1978614Y-6099099D01*
X-2115386Y-6099099D01*
X-2174000Y-6040485D01*
X-2232614Y-6099099D01*
X-2369386Y-6099099D01*
X-2428000Y-6040485D01*
X-2486614Y-6099099D01*
X-2623386Y-6099099D01*
X-2682000Y-6040485D01*
X-2740614Y-6099099D01*
X-2877386Y-6099099D01*
X-2974099Y-6002386D01*
X-2974099Y-5865614D01*
X-2877386Y-5768901D01*
X-2740614Y-5768901D01*
X-2707399Y-5802116D01*
X-2707399Y-5255125D01*
X-2857125Y-5105399D01*
X-3013501Y-5105399D01*
X-3013501Y-5256907D01*
X-3051601Y-5295007D01*
X-3051601Y-6134101D01*
X-2682375Y-6134101D01*
X-2402601Y-6413875D01*
X-2402601Y-6614914D01*
X-2392079Y-6625436D01*
X-2348344Y-6581701D01*
X-2253656Y-6581701D01*
X-2209921Y-6625436D01*
X-2115386Y-6530901D01*
X-1978614Y-6530901D01*
X-1965914Y-6543601D01*
X-1714875Y-6543601D01*
X-1625601Y-6632875D01*
X-1625601Y-6921875D01*
X-1549399Y-6998077D01*
X-1549399Y-6921875D01*
X-1460125Y-6832601D01*
X-469399Y-6832601D01*
X-469399Y-6723086D01*
X-479921Y-6712564D01*
X-523656Y-6756299D01*
X-618344Y-6756299D01*
X-639560Y-6735084D01*
X-698875Y-6794399D01*
X-743914Y-6794399D01*
X-756614Y-6807099D01*
X-893386Y-6807099D01*
X-913901Y-6786584D01*
X-913901Y-6807099D01*
X-1244099Y-6807099D01*
X-1244099Y-6565899D01*
X-1269625Y-6565899D01*
X-1549399Y-6286125D01*
X-1549399Y-5475125D01*
X-1654025Y-5370499D01*
X-1707907Y-5370499D01*
X-1819499Y-5258907D01*
X-1819499Y-5101093D01*
X-1707907Y-4989501D01*
X-1550093Y-4989501D01*
X-1438501Y-5101093D01*
X-1438501Y-5154975D01*
X-1244601Y-5348875D01*
X-1244601Y-6159875D01*
X-1143375Y-6261101D01*
X-126625Y-6261101D01*
X-21399Y-6155875D01*
X-21399Y-5289007D01*
X-59499Y-5250907D01*
X-59499Y-5105399D01*
X-322875Y-5105399D01*
X-418601Y-5201125D01*
X-418601Y-5748116D01*
X-385386Y-5714901D01*
X-248614Y-5714901D01*
X-151901Y-5811614D01*
X-151901Y-5948386D01*
X-248614Y-6045099D01*
X-385386Y-6045099D01*
X-444000Y-5986485D01*
X-502614Y-6045099D01*
X-639386Y-6045099D01*
X-698000Y-5986485D01*
X-756614Y-6045099D01*
X-893386Y-6045099D01*
X-952000Y-5986485D01*
X-1010614Y-6045099D01*
X-1147386Y-6045099D01*
X-1244099Y-5948386D01*
X-1244099Y-5811614D01*
X-1147386Y-5714901D01*
X-1010614Y-5714901D01*
X-977399Y-5748116D01*
X-977399Y-4952875D01*
X-634625Y-4610101D01*
X+952125Y-4610101D01*
X+1142625Y-4800601D01*
X+4035601Y-4800601D01*
X+4035601Y-4699374D01*
X+4124874Y-4610101D01*
X+5348607Y-4610101D01*
X+5337027Y-4598521D01*
X+5337027Y-4540655D01*
X+5377944Y-4499738D01*
X+5435810Y-4499738D01*
X+5476727Y-4540655D01*
X+5476727Y-4598521D01*
X+5465147Y-4610101D01*
X+5626101Y-4610101D01*
X+5626101Y-830841D01*
X+5287601Y-492341D01*
X+5287601Y-326874D01*
X+5376874Y-237601D01*
X+5503126Y-237601D01*
X+5592399Y-326874D01*
X+5592399Y-366091D01*
X+5930899Y-704591D01*
X+5930899Y-7683125D01*
X+5651125Y-7962899D01*
X-4127125Y-7962899D01*
X-4406899Y-7683125D01*
X-4406899Y-6193375D01*
X-4028499Y-5814975D01*
X-4028499Y-5761093D01*
X-3990399Y-5722993D01*
X-3990399Y-5080375D01*
X-3710625Y-4800601D01*
X-2730875Y-4800601D01*
X-2402601Y-5128875D01*
X-2402601Y-5650577D01*
X-2340399Y-5588375D01*
X-2340399Y-5295007D01*
X-2378499Y-5256907D01*
X-2378499Y-5099093D01*
X-2340399Y-5060993D01*
X-2340399Y-4952625D01*
X-2474399Y-4818625D01*
X-2474399Y-4478099D01*
X-2741099Y-4478099D01*
X-2741099Y-4147901D01*
X-2626425Y-4147901D01*
X-2263125Y-3784601D01*
X-696399Y-3784601D01*
X-696399Y-2920884D01*
X-729614Y-2954099D01*
X-866386Y-2954099D01*
X-925000Y-2895485D01*
X-983614Y-2954099D01*
X-1120386Y-2954099D01*
X-1179000Y-2895485D01*
X-1237614Y-2954099D01*
X-1374386Y-2954099D01*
X-1433000Y-2895485D01*
X-1491614Y-2954099D01*
X-1628386Y-2954099D01*
X-1687000Y-2895485D01*
X-1745614Y-2954099D01*
X-1882386Y-2954099D01*
X-1941000Y-2895485D01*
X-1999614Y-2954099D01*
X-2136386Y-2954099D01*
X-2195000Y-2895485D01*
X-2253614Y-2954099D01*
X-2390386Y-2954099D01*
X-2449000Y-2895485D01*
X-2507614Y-2954099D01*
X-2644386Y-2954099D01*
X-2741099Y-2857386D01*
X-2741099Y-2720614D01*
X-2644386Y-2623901D01*
X-2507614Y-2623901D01*
X-2449000Y-2682515D01*
X-2390386Y-2623901D01*
X-2253614Y-2623901D01*
X-2195000Y-2682515D01*
X-2136386Y-2623901D01*
X-1999614Y-2623901D01*
X-1941000Y-2682515D01*
X-1882386Y-2623901D01*
X-1745614Y-2623901D01*
X-1687000Y-2682515D01*
X-1628386Y-2623901D01*
X-1491614Y-2623901D01*
X-1433000Y-2682515D01*
X-1374386Y-2623901D01*
X-1237614Y-2623901D01*
X-1179000Y-2682515D01*
X-1120386Y-2623901D01*
X-983614Y-2623901D01*
X-925000Y-2682515D01*
X-866386Y-2623901D01*
X-799221Y-2623901D01*
X-1402751Y-2020371D01*
X-1402751Y-1130514D01*
X-1313478Y-1041241D01*
X-1187226Y-1041241D01*
X-1168399Y-1060068D01*
X-1168399Y-317875D01*
X-888625Y-38101D01*
X+3111125Y-38101D01*
X+3155762Y-82738D01*
X+5541412Y-921526D02*
X+5541412Y-1047778D01*
X+4352399Y-2236791D01*
X+4352399Y-4463126D01*
X+4263126Y-4552399D01*
X+4136874Y-4552399D01*
X+4047601Y-4463126D01*
X+4047601Y-2110541D01*
X+5325888Y-832254D01*
X+5452140Y-832254D01*
X+5541412Y-921526D01*
X+5362034Y-1523997D02*
X+5362034Y-1466131D01*
X+5402951Y-1425214D01*
X+5460817Y-1425214D01*
X+5501734Y-1466131D01*
X+5501734Y-1523997D01*
X+5460817Y-1564914D01*
X+5402951Y-1564914D01*
X+5362034Y-1523997D01*
X-212199Y-1658199D02*
X-161399Y-1658199D01*
X-161399Y-1850875D01*
X-317125Y-2006601D01*
X-762375Y-2006601D01*
X-863601Y-1905375D01*
X-863601Y-1607399D01*
X-720199Y-1607399D01*
X-720199Y-1658199D01*
X-313801Y-1658199D01*
X-313801Y-1607399D01*
X-212199Y-1607399D01*
X-212199Y-1658199D01*
X-104386Y-2954099D02*
X+32386Y-2954099D01*
X+91000Y-2895485D01*
X+149614Y-2954099D01*
X+167575Y-2954099D01*
X+731375Y-3517899D01*
X+2829577Y-3517899D01*
X+2199575Y-4147901D01*
X+2181614Y-4147901D01*
X+2123000Y-4206515D01*
X+2064386Y-4147901D01*
X+1927614Y-4147901D01*
X+1869000Y-4206515D01*
X+1810386Y-4147901D01*
X+1673614Y-4147901D01*
X+1615000Y-4206515D01*
X+1556386Y-4147901D01*
X+1419614Y-4147901D01*
X+1361000Y-4206515D01*
X+1302386Y-4147901D01*
X+1165614Y-4147901D01*
X+1107000Y-4206515D01*
X+1048386Y-4147901D01*
X+911614Y-4147901D01*
X+853000Y-4206515D01*
X+794386Y-4147901D01*
X+657614Y-4147901D01*
X+599000Y-4206515D01*
X+540386Y-4147901D01*
X+403614Y-4147901D01*
X+309079Y-4242436D01*
X+265344Y-4198701D01*
X+170656Y-4198701D01*
X+126921Y-4242436D01*
X+32386Y-4147901D01*
X+14425Y-4147901D01*
X-348875Y-3784601D01*
X-391601Y-3784601D01*
X-391601Y-2870086D01*
X-381079Y-2859564D01*
X-337344Y-2903299D01*
X-242656Y-2903299D01*
X-198921Y-2859564D01*
X-104386Y-2954099D01*
X+5626101Y-5016125D02*
X+5626101Y-7556875D01*
X+5524875Y-7658101D01*
X-4000875Y-7658101D01*
X-4102101Y-7556875D01*
X-4102101Y-6319625D01*
X-3812975Y-6030499D01*
X-3759093Y-6030499D01*
X-3647501Y-5918907D01*
X-3647501Y-5761093D01*
X-3685601Y-5722993D01*
X-3685601Y-5206625D01*
X-3584375Y-5105399D01*
X-3394499Y-5105399D01*
X-3394499Y-5256907D01*
X-3356399Y-5295007D01*
X-3356399Y-6320625D01*
X-3327399Y-6349625D01*
X-3327399Y-6540875D01*
X-3490125Y-6703601D01*
X-3720993Y-6703601D01*
X-3759093Y-6665501D01*
X-3916907Y-6665501D01*
X-4028499Y-6777093D01*
X-4028499Y-6934907D01*
X-3916907Y-7046499D01*
X-3759093Y-7046499D01*
X-3720993Y-7008399D01*
X-3363875Y-7008399D01*
X-3022601Y-6667125D01*
X-3022601Y-6438899D01*
X-2808625Y-6438899D01*
X-2716623Y-6530901D01*
X-2974099Y-6530901D01*
X-2974099Y-6861099D01*
X-2707399Y-6861099D01*
X-2707399Y-7243125D01*
X-2618125Y-7332399D01*
X-2324007Y-7332399D01*
X-2285907Y-7370499D01*
X-2128093Y-7370499D01*
X-2016501Y-7258907D01*
X-2016501Y-7101093D01*
X-2128093Y-6989501D01*
X-2285907Y-6989501D01*
X-2324007Y-7027601D01*
X-2402601Y-7027601D01*
X-2402601Y-6777086D01*
X-2392079Y-6766564D01*
X-2348344Y-6810299D01*
X-2253656Y-6810299D01*
X-2209921Y-6766564D01*
X-2115386Y-6861099D01*
X-1978614Y-6861099D01*
X-1965914Y-6848399D01*
X-1930399Y-6848399D01*
X-1930399Y-7048125D01*
X-1650625Y-7327899D01*
X-1549399Y-7327899D01*
X-1549399Y-7492625D01*
X-1460125Y-7581899D01*
X+859625Y-7581899D01*
X+1653425Y-6788099D01*
X+1671386Y-6788099D01*
X+1684086Y-6775399D01*
X+2265373Y-6775399D01*
X+2358374Y-6682398D01*
X+2358374Y-6565899D01*
X+2692775Y-6565899D01*
X+2768601Y-6641726D01*
X+2768601Y-7302125D01*
X+3048375Y-7581899D01*
X+5108725Y-7581899D01*
X+5388499Y-7302125D01*
X+5388499Y-5588375D01*
X+5356399Y-5556275D01*
X+5356399Y-5300007D01*
X+5394499Y-5261907D01*
X+5394499Y-5104093D01*
X+5282907Y-4992501D01*
X+5125093Y-4992501D01*
X+5013501Y-5104093D01*
X+5013501Y-5261907D01*
X+5051601Y-5300007D01*
X+5051601Y-5682525D01*
X+5083701Y-5714625D01*
X+5083701Y-6419701D01*
X+5023656Y-6419701D01*
X+4956701Y-6486656D01*
X+4956701Y-6581344D01*
X+5000436Y-6625079D01*
X+4905901Y-6719614D01*
X+4905901Y-6737575D01*
X+4690115Y-6953361D01*
X+3424810Y-6953361D01*
X+3327019Y-6855570D01*
X+3471999Y-6710590D01*
X+3471999Y-6500170D01*
X+3323210Y-6351381D01*
X+3112790Y-6351381D01*
X+3037970Y-6426201D01*
X+2984125Y-6426201D01*
X+2819025Y-6261101D01*
X+1495375Y-6261101D01*
X+1298575Y-6457901D01*
X+1280614Y-6457901D01*
X+1247399Y-6491116D01*
X+1247399Y-6413125D01*
X+1501399Y-6159125D01*
X+1501399Y-5992884D01*
X+1534614Y-6026099D01*
X+1671386Y-6026099D01*
X+1768099Y-5929386D01*
X+1768099Y-5792614D01*
X+1671386Y-5695901D01*
X+1534614Y-5695901D01*
X+1501399Y-5729116D01*
X+1501399Y-5310875D01*
X+1337499Y-5146975D01*
X+1337499Y-5105399D01*
X+3997501Y-5105399D01*
X+3997501Y-5261907D01*
X+4109093Y-5373499D01*
X+4266907Y-5373499D01*
X+4378499Y-5261907D01*
X+4378499Y-5104093D01*
X+4352399Y-5077993D01*
X+4352399Y-4914899D01*
X+5336818Y-4914899D01*
X+5327650Y-4924067D01*
X+5327650Y-4981933D01*
X+5368567Y-5022850D01*
X+5426433Y-5022850D01*
X+5467350Y-4981933D01*
X+5467350Y-4924067D01*
X+5458182Y-4914899D01*
X+5524875Y-4914899D01*
X+5626101Y-5016125D01*
X+3133832Y-5901801D02*
X+3302168Y-5901801D01*
X+3421199Y-6020832D01*
X+3421199Y-6189168D01*
X+3302168Y-6308199D01*
X+3133832Y-6308199D01*
X+3014801Y-6189168D01*
X+3014801Y-6020832D01*
X+3133832Y-5901801D01*
D12*
X+218000Y-4427299D02*
X+218000Y-4313000D01*
X+218000Y-4198701D02*
X+218000Y-4313000D01*
X-290000Y-2903299D02*
X-290000Y-2789000D01*
X-771000Y-1607399D02*
X-771000Y-1455000D01*
X-263000Y-1607399D02*
X-263000Y-1455000D01*
X+3218000Y-5901801D02*
X+3218000Y-6105000D01*
X+3218000Y-6308199D02*
X+3218000Y-6105000D01*
X+3014801Y-6105000D02*
X+3218000Y-6105000D01*
X+3421199Y-6105000D02*
X+3218000Y-6105000D01*
X-571000Y-6756299D02*
X-571000Y-6642000D01*
X-2301000Y-6810299D02*
X-2301000Y-6696000D01*
X-2301000Y-6581701D02*
X-2301000Y-6696000D01*
X+5071000Y-6419701D02*
X+5071000Y-6534000D01*
X+4956701Y-6534000D02*
X+5071000Y-6534000D01*
D10*
X+7160940Y-8290940D02*
X-5480940Y-8290940D01*
X-5480940Y+1160940D01*
X+7160940Y+1160940D01*
X+7160940Y-8290940D01*
X+3155762Y-82738D02*
X+3390899Y-317875D01*
X+3390899Y-1690155D01*
X+3436964Y-1644090D01*
X+3563216Y-1644090D01*
X+3660527Y-1741401D01*
X+3660527Y-3410940D01*
X+2413784Y-4657683D01*
X+2125159Y-4657683D01*
X+1945575Y-4478099D01*
X+1927614Y-4478099D01*
X+1869000Y-4419485D01*
X+1810386Y-4478099D01*
X+1673614Y-4478099D01*
X+1615000Y-4419485D01*
X+1556386Y-4478099D01*
X+1419614Y-4478099D01*
X+1361000Y-4419485D01*
X+1302386Y-4478099D01*
X+1165614Y-4478099D01*
X+1107000Y-4419485D01*
X+1048386Y-4478099D01*
X+911614Y-4478099D01*
X+853000Y-4419485D01*
X+794386Y-4478099D01*
X+657614Y-4478099D01*
X+599000Y-4419485D01*
X+540386Y-4478099D01*
X+403614Y-4478099D01*
X+345000Y-4419485D01*
X+286386Y-4478099D01*
X+268425Y-4478099D01*
X+136423Y-4610101D01*
X+952125Y-4610101D01*
X+1142625Y-4800601D01*
X+4035601Y-4800601D01*
X+4035601Y-4699374D01*
X+4124874Y-4610101D01*
X+5254478Y-4610101D01*
X+5254478Y-1456946D01*
X+5368758Y-1342666D01*
X+5495010Y-1342666D01*
X+5584282Y-1431938D01*
X+5584282Y-1558190D01*
X+5559276Y-1583196D01*
X+5559276Y-4610101D01*
X+5626101Y-4610101D01*
X+5626101Y-830841D01*
X+5287601Y-492341D01*
X+5287601Y-326874D01*
X+5376874Y-237601D01*
X+5503126Y-237601D01*
X+5592399Y-326874D01*
X+5592399Y-366091D01*
X+5930899Y-704591D01*
X+5930899Y-7683125D01*
X+5651125Y-7962899D01*
X-4127125Y-7962899D01*
X-4406899Y-7683125D01*
X-4406899Y-6193375D01*
X-4028499Y-5814975D01*
X-4028499Y-5761093D01*
X-3990399Y-5722993D01*
X-3990399Y-5080375D01*
X-3710625Y-4800601D01*
X-2730875Y-4800601D01*
X-2402601Y-5128875D01*
X-2402601Y-5650577D01*
X-2340399Y-5588375D01*
X-2340399Y-5295007D01*
X-2378499Y-5256907D01*
X-2378499Y-5099093D01*
X-2340399Y-5060993D01*
X-2340399Y-4952625D01*
X-2474399Y-4818625D01*
X-2474399Y-4427299D01*
X-2690299Y-4427299D01*
X-2690299Y-4198701D01*
X-2461701Y-4198701D01*
X-2461701Y-4219216D01*
X-2390386Y-4147901D01*
X-2253614Y-4147901D01*
X-2195000Y-4206515D01*
X-2136386Y-4147901D01*
X-1999614Y-4147901D01*
X-1941000Y-4206515D01*
X-1882386Y-4147901D01*
X-1745614Y-4147901D01*
X-1687000Y-4206515D01*
X-1628386Y-4147901D01*
X-1491614Y-4147901D01*
X-1433000Y-4206515D01*
X-1374386Y-4147901D01*
X-1237614Y-4147901D01*
X-1179000Y-4206515D01*
X-1120386Y-4147901D01*
X-983614Y-4147901D01*
X-925000Y-4206515D01*
X-866386Y-4147901D01*
X-729614Y-4147901D01*
X-671000Y-4206515D01*
X-612386Y-4147901D01*
X-475614Y-4147901D01*
X-417000Y-4206515D01*
X-358386Y-4147901D01*
X-221614Y-4147901D01*
X-127079Y-4242436D01*
X-83344Y-4198701D01*
X+11344Y-4198701D01*
X+55079Y-4242436D01*
X+65601Y-4231914D01*
X+65601Y-3873125D01*
X-442399Y-3365125D01*
X-442399Y-2870086D01*
X-452921Y-2859564D01*
X-496656Y-2903299D01*
X-591344Y-2903299D01*
X-635079Y-2859564D01*
X-729614Y-2954099D01*
X-866386Y-2954099D01*
X-925000Y-2895485D01*
X-983614Y-2954099D01*
X-1120386Y-2954099D01*
X-1179000Y-2895485D01*
X-1237614Y-2954099D01*
X-1374386Y-2954099D01*
X-1433000Y-2895485D01*
X-1491614Y-2954099D01*
X-1628386Y-2954099D01*
X-1687000Y-2895485D01*
X-1745614Y-2954099D01*
X-1882386Y-2954099D01*
X-1941000Y-2895485D01*
X-1999614Y-2954099D01*
X-2136386Y-2954099D01*
X-2195000Y-2895485D01*
X-2253614Y-2954099D01*
X-2390386Y-2954099D01*
X-2449000Y-2895485D01*
X-2507614Y-2954099D01*
X-2644386Y-2954099D01*
X-2741099Y-2857386D01*
X-2741099Y-2720614D01*
X-2644386Y-2623901D01*
X-2507614Y-2623901D01*
X-2449000Y-2682515D01*
X-2390386Y-2623901D01*
X-2253614Y-2623901D01*
X-2195000Y-2682515D01*
X-2136386Y-2623901D01*
X-1999614Y-2623901D01*
X-1941000Y-2682515D01*
X-1882386Y-2623901D01*
X-1745614Y-2623901D01*
X-1687000Y-2682515D01*
X-1628386Y-2623901D01*
X-1491614Y-2623901D01*
X-1433000Y-2682515D01*
X-1374386Y-2623901D01*
X-1237614Y-2623901D01*
X-1179000Y-2682515D01*
X-1120386Y-2623901D01*
X-983614Y-2623901D01*
X-925000Y-2682515D01*
X-866386Y-2623901D01*
X-799221Y-2623901D01*
X-1402751Y-2020371D01*
X-1402751Y-1130514D01*
X-1313478Y-1041241D01*
X-1187226Y-1041241D01*
X-1168399Y-1060068D01*
X-1168399Y-317875D01*
X-888625Y-38101D01*
X+3111125Y-38101D01*
X+3155762Y-82738D01*
X+5541412Y-921526D02*
X+5541412Y-1047778D01*
X+4352399Y-2236791D01*
X+4352399Y-4463126D01*
X+4263126Y-4552399D01*
X+4136874Y-4552399D01*
X+4047601Y-4463126D01*
X+4047601Y-2110541D01*
X+5325888Y-832254D01*
X+5452140Y-832254D01*
X+5541412Y-921526D01*
X-466199Y-1625601D02*
X-567801Y-1625601D01*
X-567801Y-1607399D01*
X-466199Y-1607399D01*
X-466199Y-1625601D01*
X-387504Y-2653020D02*
X-452921Y-2718436D01*
X-496656Y-2674701D01*
X-591344Y-2674701D01*
X-635079Y-2718436D01*
X-729439Y-2624076D01*
X-416448Y-2624076D01*
X-387504Y-2653020D01*
D12*
X-2690299Y-4313000D02*
X-2576000Y-4313000D01*
X-2576000Y-4427299D02*
X-2576000Y-4313000D01*
X-2576000Y-4198701D02*
X-2576000Y-4313000D01*
X-36000Y-4198701D02*
X-36000Y-4313000D01*
X-544000Y-2674701D02*
X-544000Y-2789000D01*
X-544000Y-2903299D02*
X-544000Y-2789000D01*
X-517000Y-1607399D02*
X-517000Y-1455000D01*
D14*
X-2576000Y-4313000D03*
D15*
X-2322000Y-4313000D03*
X-2068000Y-4313000D03*
X-1814000Y-4313000D03*
X-1560000Y-4313000D03*
X-1306000Y-4313000D03*
X-1052000Y-4313000D03*
X-798000Y-4313000D03*
X-544000Y-4313000D03*
X-290000Y-4313000D03*
X-36000Y-4313000D03*
X+218000Y-4313000D03*
X+472000Y-4313000D03*
X+726000Y-4313000D03*
X+980000Y-4313000D03*
X+1234000Y-4313000D03*
X+1488000Y-4313000D03*
X+1742000Y-4313000D03*
X+1996000Y-4313000D03*
X+2250000Y-4313000D03*
X+2250000Y-2789000D03*
X+1996000Y-2789000D03*
X+1742000Y-2789000D03*
X+1488000Y-2789000D03*
X+1234000Y-2789000D03*
X+980000Y-2789000D03*
X+726000Y-2789000D03*
X+472000Y-2789000D03*
X+218000Y-2789000D03*
X-36000Y-2789000D03*
X-290000Y-2789000D03*
X-544000Y-2789000D03*
X-798000Y-2789000D03*
X-1052000Y-2789000D03*
X-1306000Y-2789000D03*
X-1560000Y-2789000D03*
X-1814000Y-2789000D03*
X-2068000Y-2789000D03*
X-2322000Y-2789000D03*
X-2576000Y-2789000D03*
D16*
X-771000Y-1455000D03*
X-517000Y-1455000D03*
X-263000Y-1455000D03*
X-9000Y-1455000D03*
X+245000Y-1455000D03*
X+499000Y-1455000D03*
X+753000Y-1455000D03*
X+753000Y-1201000D03*
X+499000Y-1201000D03*
X+245000Y-1201000D03*
X-9000Y-1201000D03*
X-263000Y-1201000D03*
X-517000Y-1201000D03*
X-771000Y-1201000D03*
D17*
X+3218000Y-6105000D03*
X+3218000Y-6605380D03*
X+3218000Y-7105760D03*
D14*
X+841000Y-6623000D03*
D15*
X+1095000Y-6623000D03*
X+1349000Y-6623000D03*
X+1603000Y-6623000D03*
X+1603000Y-5861000D03*
X+1349000Y-5861000D03*
X+1095000Y-5861000D03*
X+841000Y-5861000D03*
D14*
X-1079000Y-6642000D03*
D15*
X-825000Y-6642000D03*
X-571000Y-6642000D03*
X-317000Y-6642000D03*
X-317000Y-5880000D03*
X-571000Y-5880000D03*
X-825000Y-5880000D03*
X-1079000Y-5880000D03*
D14*
X-2809000Y-6696000D03*
D15*
X-2555000Y-6696000D03*
X-2301000Y-6696000D03*
X-2047000Y-6696000D03*
X-2047000Y-5934000D03*
X-2301000Y-5934000D03*
X-2555000Y-5934000D03*
X-2809000Y-5934000D03*
X+5071000Y-6788000D03*
X+5198000Y-6661000D03*
X+5071000Y-6534000D03*
D18*
X+4188000Y-5183000D03*
X+5204000Y-5183000D03*
X+1147000Y-5172000D03*
X+131000Y-5172000D03*
X-1629000Y-5180000D03*
X-613000Y-5180000D03*
X-1191000Y-7180000D03*
X-2207000Y-7180000D03*
X-3204000Y-5178000D03*
X-2188000Y-5178000D03*
X-3838000Y-5840000D03*
X-3838000Y-6856000D03*
D19*
X-5580000Y-8390000D02*
X+7260000Y-8390000D01*
X+7260000Y+1260000D01*
X-5580000Y+1260000D01*
X-5580000Y-8390000D01*
X+6320000Y-240800D02*
X+6320000Y-317000D01*
X+6396200Y-393200D01*
X+6472400Y-317000D01*
X+6472400Y-240800D01*
X+6523200Y-317000D02*
X+6675600Y-317000D01*
X+6599400Y-266200D02*
X+6599400Y-367800D01*
X+6320000Y-830800D02*
X+6320000Y-907000D01*
X+6396200Y-983200D01*
X+6472400Y-907000D01*
X+6472400Y-830800D01*
X+6548600Y-907000D02*
X+6675600Y-907000D01*
X+6441600Y-1532400D02*
X+6492400Y-1532400D01*
X+6492400Y-1583200D01*
X+6390800Y-1583200D01*
X+6340000Y-1532400D01*
X+6340000Y-1481600D01*
X+6390800Y-1430800D01*
X+6467000Y-1430800D01*
X+6492400Y-1456200D01*
X+6543200Y-1583200D02*
X+6543200Y-1430800D01*
X+6695600Y-1583200D01*
X+6695600Y-1430800D01*
X+6746400Y-1583200D02*
X+6746400Y-1430800D01*
X+6848000Y-1430800D01*
X+6898800Y-1481600D01*
X+6898800Y-1532400D01*
X+6848000Y-1583200D01*
X+6746400Y-1583200D01*
M02*
