G04 PROTEUS GERBER X2 FILE*
%TF.GenerationSoftware,Labcenter,Proteus,8.8-SP1-Build27031*%
%TF.CreationDate,2019-05-18T07:00:24+00:00*%
%TF.FileFunction,Legend,Top*%
%TF.FilePolarity,Positive*%
%TF.Part,Single*%
%TF.SameCoordinates,{a8659aba-65a4-4c0a-9c60-288927405768}*%
%FSLAX45Y45*%
%MOMM*%
G01*
%TA.AperFunction,Profile*%
%ADD19C,0.203200*%
%TA.AperFunction,Material*%
%ADD70C,0.203200*%
%TD.AperFunction*%
D19*
X-5580000Y-8390000D02*
X+7260000Y-8390000D01*
X+7260000Y+1260000D01*
X-5580000Y+1260000D01*
X-5580000Y-8390000D01*
D70*
X-2449000Y-3551000D02*
X-2454080Y-3499248D01*
X-2468685Y-3451305D01*
X-2491862Y-3408125D01*
X-2522660Y-3370660D01*
X-2560125Y-3339862D01*
X-2603305Y-3316685D01*
X-2651248Y-3302080D01*
X-2703000Y-3297000D01*
X-2449000Y-3551000D02*
X-2454080Y-3603482D01*
X-2468685Y-3651767D01*
X-2491862Y-3694991D01*
X-2522660Y-3732292D01*
X-2560125Y-3762807D01*
X-2603305Y-3785672D01*
X-2651248Y-3800024D01*
X-2703000Y-3805000D01*
X-2703000Y-3297000D02*
X-2703000Y-2916000D01*
X+2377000Y-2916000D02*
X+2377000Y-4186000D01*
X-2703000Y-4186000D02*
X-2703000Y-3805000D01*
X-2703000Y-2916000D02*
X+2377000Y-2916000D01*
X-2703000Y-4186000D02*
X+2377000Y-4186000D01*
X-2835080Y-3678000D02*
X-2758880Y-3678000D01*
X-2743640Y-3662125D01*
X-2743640Y-3598625D01*
X-2758880Y-3582750D01*
X-2835080Y-3582750D01*
X-2819840Y-3535125D02*
X-2835080Y-3519250D01*
X-2835080Y-3471625D01*
X-2819840Y-3455750D01*
X-2804600Y-3455750D01*
X-2789360Y-3471625D01*
X-2789360Y-3519250D01*
X-2774120Y-3535125D01*
X-2743640Y-3535125D01*
X-2743640Y-3455750D01*
X-898000Y-1582000D02*
X+880000Y-1582000D01*
X+880000Y-1074000D01*
X-898000Y-1074000D01*
X-898000Y-1582000D01*
X-263000Y-941920D02*
X-263000Y-1033360D01*
X-167750Y-1033360D01*
X-40750Y-1018120D02*
X-56625Y-1033360D01*
X-104250Y-1033360D01*
X-136000Y-1002880D01*
X-136000Y-972400D01*
X-104250Y-941920D01*
X-56625Y-941920D01*
X-40750Y-957160D01*
X-9000Y-1033360D02*
X-9000Y-941920D01*
X+54500Y-941920D01*
X+86250Y-972400D01*
X+86250Y-1002880D01*
X+54500Y-1033360D01*
X-9000Y-1033360D01*
X+149750Y-972400D02*
X+181500Y-941920D01*
X+181500Y-1033360D01*
X+2837000Y-5851000D02*
X+3599000Y-5851000D01*
X+3599000Y-7375000D02*
X+2837000Y-7375000D01*
X+3599000Y-5851000D02*
X+3599000Y-7375000D01*
X+2837000Y-5851000D02*
X+2837000Y-7375000D01*
X+3731080Y-6813500D02*
X+3639640Y-6813500D01*
X+3639640Y-6734125D01*
X+3654880Y-6718250D01*
X+3670120Y-6718250D01*
X+3685360Y-6734125D01*
X+3685360Y-6813500D01*
X+3685360Y-6734125D02*
X+3700600Y-6718250D01*
X+3731080Y-6718250D01*
X+3639640Y-6686500D02*
X+3685360Y-6686500D01*
X+3731080Y-6638875D01*
X+3685360Y-6591250D01*
X+3639640Y-6591250D01*
X+3670120Y-6527750D02*
X+3639640Y-6496000D01*
X+3731080Y-6496000D01*
X+714000Y-6115000D02*
X+714000Y-5988000D01*
X+1730000Y-5988000D01*
X+1730000Y-6496000D01*
X+714000Y-6496000D01*
X+714000Y-6369000D01*
X+841000Y-6242000D02*
X+838564Y-6216124D01*
X+831515Y-6192152D01*
X+820238Y-6170562D01*
X+805122Y-6151830D01*
X+786554Y-6136431D01*
X+764919Y-6124842D01*
X+740606Y-6117540D01*
X+714000Y-6115000D01*
X+841000Y-6242000D02*
X+838564Y-6268606D01*
X+831515Y-6292919D01*
X+820238Y-6314554D01*
X+805122Y-6333122D01*
X+786554Y-6348238D01*
X+764919Y-6359515D01*
X+740606Y-6366564D01*
X+714000Y-6369000D01*
X+581920Y-6369000D02*
X+658120Y-6369000D01*
X+673360Y-6353125D01*
X+673360Y-6289625D01*
X+658120Y-6273750D01*
X+581920Y-6273750D01*
X+612400Y-6210250D02*
X+581920Y-6178500D01*
X+673360Y-6178500D01*
X-1206000Y-6134000D02*
X-1206000Y-6007000D01*
X-190000Y-6007000D01*
X-190000Y-6515000D01*
X-1206000Y-6515000D01*
X-1206000Y-6388000D01*
X-1079000Y-6261000D02*
X-1081436Y-6235124D01*
X-1088485Y-6211152D01*
X-1099762Y-6189562D01*
X-1114878Y-6170830D01*
X-1133446Y-6155431D01*
X-1155081Y-6143842D01*
X-1179394Y-6136540D01*
X-1206000Y-6134000D01*
X-1079000Y-6261000D02*
X-1081436Y-6287606D01*
X-1088485Y-6311919D01*
X-1099762Y-6333554D01*
X-1114878Y-6352122D01*
X-1133446Y-6367238D01*
X-1155081Y-6378515D01*
X-1179394Y-6385564D01*
X-1206000Y-6388000D01*
X-1338080Y-6388000D02*
X-1261880Y-6388000D01*
X-1246640Y-6372125D01*
X-1246640Y-6308625D01*
X-1261880Y-6292750D01*
X-1338080Y-6292750D01*
X-1322840Y-6245125D02*
X-1338080Y-6229250D01*
X-1338080Y-6181625D01*
X-1322840Y-6165750D01*
X-1307600Y-6165750D01*
X-1292360Y-6181625D01*
X-1277120Y-6165750D01*
X-1261880Y-6165750D01*
X-1246640Y-6181625D01*
X-1246640Y-6229250D01*
X-1261880Y-6245125D01*
X-1292360Y-6213375D02*
X-1292360Y-6181625D01*
X-2936000Y-6188000D02*
X-2936000Y-6061000D01*
X-1920000Y-6061000D01*
X-1920000Y-6569000D01*
X-2936000Y-6569000D01*
X-2936000Y-6442000D01*
X-2809000Y-6315000D02*
X-2811436Y-6289124D01*
X-2818485Y-6265152D01*
X-2829762Y-6243562D01*
X-2844878Y-6224830D01*
X-2863446Y-6209431D01*
X-2885081Y-6197842D01*
X-2909394Y-6190540D01*
X-2936000Y-6188000D01*
X-2809000Y-6315000D02*
X-2811436Y-6341606D01*
X-2818485Y-6365919D01*
X-2829762Y-6387554D01*
X-2844878Y-6406122D01*
X-2863446Y-6421238D01*
X-2885081Y-6432515D01*
X-2909394Y-6439564D01*
X-2936000Y-6442000D01*
X-3068080Y-6442000D02*
X-2991880Y-6442000D01*
X-2976640Y-6426125D01*
X-2976640Y-6362625D01*
X-2991880Y-6346750D01*
X-3068080Y-6346750D01*
X-3007120Y-6219750D02*
X-3007120Y-6315000D01*
X-3068080Y-6251500D01*
X-2976640Y-6251500D01*
X+5325000Y-6661000D02*
X+5324173Y-6640517D01*
X+5317455Y-6599550D01*
X+5303437Y-6558583D01*
X+5280659Y-6517616D01*
X+5245859Y-6476771D01*
X+5204892Y-6445155D01*
X+5163925Y-6424608D01*
X+5122958Y-6412371D01*
X+5081991Y-6407238D01*
X+5071000Y-6407000D01*
X+4817000Y-6661000D02*
X+4817827Y-6640517D01*
X+4824545Y-6599550D01*
X+4838563Y-6558583D01*
X+4861341Y-6517616D01*
X+4896141Y-6476771D01*
X+4937108Y-6445155D01*
X+4978075Y-6424608D01*
X+5019042Y-6412371D01*
X+5060009Y-6407238D01*
X+5071000Y-6407000D01*
X+4817000Y-6661000D02*
X+4817827Y-6681483D01*
X+4824545Y-6722450D01*
X+4838563Y-6763417D01*
X+4861341Y-6804384D01*
X+4896141Y-6845229D01*
X+4937108Y-6876845D01*
X+4978075Y-6897392D01*
X+5019042Y-6909629D01*
X+5060009Y-6914762D01*
X+5071000Y-6915000D01*
X+5325000Y-6661000D02*
X+5324173Y-6681483D01*
X+5317455Y-6722450D01*
X+5303437Y-6763417D01*
X+5280659Y-6804384D01*
X+5245859Y-6845229D01*
X+5204892Y-6876845D01*
X+5163925Y-6897392D01*
X+5122958Y-6909629D01*
X+5081991Y-6914762D01*
X+5071000Y-6915000D01*
X+4817000Y-6826100D02*
X+4867800Y-6889600D01*
X+4817000Y-6826100D02*
X+4842400Y-6800700D01*
X+4867800Y-6889600D02*
X+4893200Y-6864200D01*
X+5457080Y-6788000D02*
X+5365640Y-6788000D01*
X+5365640Y-6724500D01*
X+5396120Y-6692750D01*
X+5426600Y-6692750D01*
X+5457080Y-6724500D01*
X+5457080Y-6788000D01*
X+5396120Y-6629250D02*
X+5365640Y-6597500D01*
X+5457080Y-6597500D01*
X+4315000Y-5183000D02*
X+4442000Y-5183000D01*
X+4442000Y-5246500D02*
X+4950000Y-5246500D01*
X+4950000Y-5119500D01*
X+4442000Y-5119500D01*
X+4442000Y-5246500D01*
X+4950000Y-5183000D02*
X+5077000Y-5183000D01*
X+4569000Y-5078860D02*
X+4569000Y-4987420D01*
X+4648375Y-4987420D01*
X+4664250Y-5002660D01*
X+4664250Y-5017900D01*
X+4648375Y-5033140D01*
X+4569000Y-5033140D01*
X+4648375Y-5033140D02*
X+4664250Y-5048380D01*
X+4664250Y-5078860D01*
X+4727750Y-5017900D02*
X+4759500Y-4987420D01*
X+4759500Y-5078860D01*
X+1020000Y-5172000D02*
X+893000Y-5172000D01*
X+385000Y-5235500D02*
X+893000Y-5235500D01*
X+893000Y-5108500D01*
X+385000Y-5108500D01*
X+385000Y-5235500D01*
X+385000Y-5172000D02*
X+258000Y-5172000D01*
X+512000Y-5367580D02*
X+512000Y-5276140D01*
X+591375Y-5276140D01*
X+607250Y-5291380D01*
X+607250Y-5306620D01*
X+591375Y-5321860D01*
X+512000Y-5321860D01*
X+591375Y-5321860D02*
X+607250Y-5337100D01*
X+607250Y-5367580D01*
X+654875Y-5291380D02*
X+670750Y-5276140D01*
X+718375Y-5276140D01*
X+734250Y-5291380D01*
X+734250Y-5306620D01*
X+718375Y-5321860D01*
X+670750Y-5321860D01*
X+654875Y-5337100D01*
X+654875Y-5367580D01*
X+734250Y-5367580D01*
X-1502000Y-5180000D02*
X-1375000Y-5180000D01*
X-1375000Y-5243500D02*
X-867000Y-5243500D01*
X-867000Y-5116500D01*
X-1375000Y-5116500D01*
X-1375000Y-5243500D01*
X-867000Y-5180000D02*
X-740000Y-5180000D01*
X-1248000Y-5075860D02*
X-1248000Y-4984420D01*
X-1168625Y-4984420D01*
X-1152750Y-4999660D01*
X-1152750Y-5014900D01*
X-1168625Y-5030140D01*
X-1248000Y-5030140D01*
X-1168625Y-5030140D02*
X-1152750Y-5045380D01*
X-1152750Y-5075860D01*
X-1105125Y-4999660D02*
X-1089250Y-4984420D01*
X-1041625Y-4984420D01*
X-1025750Y-4999660D01*
X-1025750Y-5014900D01*
X-1041625Y-5030140D01*
X-1025750Y-5045380D01*
X-1025750Y-5060620D01*
X-1041625Y-5075860D01*
X-1089250Y-5075860D01*
X-1105125Y-5060620D01*
X-1073375Y-5030140D02*
X-1041625Y-5030140D01*
X-1318000Y-7180000D02*
X-1445000Y-7180000D01*
X-1953000Y-7243500D02*
X-1445000Y-7243500D01*
X-1445000Y-7116500D01*
X-1953000Y-7116500D01*
X-1953000Y-7243500D01*
X-1953000Y-7180000D02*
X-2080000Y-7180000D01*
X-1806000Y-7375580D02*
X-1806000Y-7284140D01*
X-1726625Y-7284140D01*
X-1710750Y-7299380D01*
X-1710750Y-7314620D01*
X-1726625Y-7329860D01*
X-1806000Y-7329860D01*
X-1726625Y-7329860D02*
X-1710750Y-7345100D01*
X-1710750Y-7375580D01*
X-1583750Y-7345100D02*
X-1679000Y-7345100D01*
X-1615500Y-7284140D01*
X-1615500Y-7375580D01*
X-3077000Y-5178000D02*
X-2950000Y-5178000D01*
X-2950000Y-5241500D02*
X-2442000Y-5241500D01*
X-2442000Y-5114500D01*
X-2950000Y-5114500D01*
X-2950000Y-5241500D01*
X-2442000Y-5178000D02*
X-2315000Y-5178000D01*
X-2823000Y-5073860D02*
X-2823000Y-4982420D01*
X-2743625Y-4982420D01*
X-2727750Y-4997660D01*
X-2727750Y-5012900D01*
X-2743625Y-5028140D01*
X-2823000Y-5028140D01*
X-2743625Y-5028140D02*
X-2727750Y-5043380D01*
X-2727750Y-5073860D01*
X-2600750Y-4982420D02*
X-2680125Y-4982420D01*
X-2680125Y-5012900D01*
X-2616625Y-5012900D01*
X-2600750Y-5028140D01*
X-2600750Y-5058620D01*
X-2616625Y-5073860D01*
X-2664250Y-5073860D01*
X-2680125Y-5058620D01*
X-3838000Y-5967000D02*
X-3838000Y-6094000D01*
X-3901500Y-6602000D02*
X-3774500Y-6602000D01*
X-3774500Y-6094000D01*
X-3901500Y-6094000D01*
X-3901500Y-6602000D01*
X-3838000Y-6602000D02*
X-3838000Y-6729000D01*
X-3642420Y-6475000D02*
X-3733860Y-6475000D01*
X-3733860Y-6395625D01*
X-3718620Y-6379750D01*
X-3703380Y-6379750D01*
X-3688140Y-6395625D01*
X-3688140Y-6475000D01*
X-3688140Y-6395625D02*
X-3672900Y-6379750D01*
X-3642420Y-6379750D01*
X-3718620Y-6252750D02*
X-3733860Y-6268625D01*
X-3733860Y-6316250D01*
X-3718620Y-6332125D01*
X-3657660Y-6332125D01*
X-3642420Y-6316250D01*
X-3642420Y-6268625D01*
X-3657660Y-6252750D01*
X-3672900Y-6252750D01*
X-3688140Y-6268625D01*
X-3688140Y-6332125D01*
D19*
X+6320000Y-240800D02*
X+6320000Y-317000D01*
X+6396200Y-393200D01*
X+6472400Y-317000D01*
X+6472400Y-240800D01*
X+6523200Y-317000D02*
X+6675600Y-317000D01*
X+6599400Y-266200D02*
X+6599400Y-367800D01*
X+6320000Y-830800D02*
X+6320000Y-907000D01*
X+6396200Y-983200D01*
X+6472400Y-907000D01*
X+6472400Y-830800D01*
X+6548600Y-907000D02*
X+6675600Y-907000D01*
X+6441600Y-1532400D02*
X+6492400Y-1532400D01*
X+6492400Y-1583200D01*
X+6390800Y-1583200D01*
X+6340000Y-1532400D01*
X+6340000Y-1481600D01*
X+6390800Y-1430800D01*
X+6467000Y-1430800D01*
X+6492400Y-1456200D01*
X+6543200Y-1583200D02*
X+6543200Y-1430800D01*
X+6695600Y-1583200D01*
X+6695600Y-1430800D01*
X+6746400Y-1583200D02*
X+6746400Y-1430800D01*
X+6848000Y-1430800D01*
X+6898800Y-1481600D01*
X+6898800Y-1532400D01*
X+6848000Y-1583200D01*
X+6746400Y-1583200D01*
M02*
