G04 PROTEUS GERBER X2 FILE*
%TF.GenerationSoftware,Labcenter,Proteus,8.8-SP1-Build27031*%
%TF.CreationDate,2019-05-18T07:00:24+00:00*%
%TF.FileFunction,AssemblyDrawing,Top*%
%TF.FilePolarity,Positive*%
%TF.Part,Single*%
%TF.SameCoordinates,{a8659aba-65a4-4c0a-9c60-288927405768}*%
%FSLAX45Y45*%
%MOMM*%
G01*
%TA.AperFunction,Profile*%
%ADD19C,0.203200*%
%TA.AperFunction,Material*%
%ADD70C,0.203200*%
%ADD26C,0.990600*%
%ADD27C,0.316990*%
%ADD28C,0.386080*%
%ADD29C,0.345440*%
%ADD72C,0.176100*%
%ADD73C,0.106680*%
%TD.AperFunction*%
D19*
X-5580000Y-8390000D02*
X+7260000Y-8390000D01*
X+7260000Y+1260000D01*
X-5580000Y+1260000D01*
X-5580000Y-8390000D01*
D70*
X-2713160Y-4376500D02*
X+2387160Y-4376500D01*
X+2387160Y-2725500D01*
X-2713160Y-2725500D01*
X-2713160Y-4376500D01*
D26*
X-955480Y-3253820D02*
X-955480Y-3749120D01*
X-856420Y-3848180D01*
X-460180Y-3848180D01*
X-361120Y-3749120D01*
X-361120Y-3253820D01*
X-63940Y-3352880D02*
X+35120Y-3253820D01*
X+332300Y-3253820D01*
X+431360Y-3352880D01*
X+431360Y-3451940D01*
X+332300Y-3551000D01*
X+35120Y-3551000D01*
X-63940Y-3650060D01*
X-63940Y-3848180D01*
X+431360Y-3848180D01*
D70*
X-908160Y-1592160D02*
X+890160Y-1592160D01*
X+890160Y-1063840D01*
X-908160Y-1063840D01*
X-908160Y-1592160D01*
D27*
X-516186Y-1232903D02*
X-516186Y-1423098D01*
X-325992Y-1423098D01*
X-72399Y-1391399D02*
X-104098Y-1423098D01*
X-199195Y-1423098D01*
X-262593Y-1359700D01*
X-262593Y-1296301D01*
X-199195Y-1232903D01*
X-104098Y-1232903D01*
X-72399Y-1264602D01*
X-9000Y-1423098D02*
X-9000Y-1232903D01*
X+117796Y-1232903D01*
X+181194Y-1296301D01*
X+181194Y-1359700D01*
X+117796Y-1423098D01*
X-9000Y-1423098D01*
X+307991Y-1296301D02*
X+371389Y-1232903D01*
X+371389Y-1423098D01*
D70*
X+2826840Y-7385160D02*
X+3609160Y-7385160D01*
X+3609160Y-5840840D01*
X+2826840Y-5840840D01*
X+2826840Y-7385160D01*
D28*
X+3333824Y-7076296D02*
X+3102176Y-7076296D01*
X+3102176Y-6883256D01*
X+3140784Y-6844648D01*
X+3179392Y-6844648D01*
X+3218000Y-6883256D01*
X+3218000Y-7076296D01*
X+3218000Y-6883256D02*
X+3256608Y-6844648D01*
X+3333824Y-6844648D01*
X+3102176Y-6767432D02*
X+3218000Y-6767432D01*
X+3333824Y-6651608D01*
X+3218000Y-6535784D01*
X+3102176Y-6535784D01*
X+3179392Y-6381352D02*
X+3102176Y-6304136D01*
X+3333824Y-6304136D01*
D70*
X+703840Y-6686500D02*
X+1740160Y-6686500D01*
X+1740160Y-5797500D01*
X+703840Y-5797500D01*
X+703840Y-6686500D01*
D29*
X+945648Y-6138368D02*
X+945648Y-6311088D01*
X+980192Y-6345632D01*
X+1118368Y-6345632D01*
X+1152912Y-6311088D01*
X+1152912Y-6138368D01*
X+1291088Y-6207456D02*
X+1360176Y-6138368D01*
X+1360176Y-6345632D01*
D70*
X-1216160Y-6705500D02*
X-179840Y-6705500D01*
X-179840Y-5816500D01*
X-1216160Y-5816500D01*
X-1216160Y-6705500D01*
D29*
X-974352Y-6157368D02*
X-974352Y-6330088D01*
X-939808Y-6364632D01*
X-801632Y-6364632D01*
X-767088Y-6330088D01*
X-767088Y-6157368D01*
X-663456Y-6191912D02*
X-628912Y-6157368D01*
X-525280Y-6157368D01*
X-490736Y-6191912D01*
X-490736Y-6226456D01*
X-525280Y-6261000D01*
X-490736Y-6295544D01*
X-490736Y-6330088D01*
X-525280Y-6364632D01*
X-628912Y-6364632D01*
X-663456Y-6330088D01*
X-594368Y-6261000D02*
X-525280Y-6261000D01*
D70*
X-2946160Y-6759500D02*
X-1909840Y-6759500D01*
X-1909840Y-5870500D01*
X-2946160Y-5870500D01*
X-2946160Y-6759500D01*
D29*
X-2704352Y-6211368D02*
X-2704352Y-6384088D01*
X-2669808Y-6418632D01*
X-2531632Y-6418632D01*
X-2497088Y-6384088D01*
X-2497088Y-6211368D01*
X-2220736Y-6349544D02*
X-2428000Y-6349544D01*
X-2289824Y-6211368D01*
X-2289824Y-6418632D01*
D70*
X+4806840Y-6925160D02*
X+5335160Y-6925160D01*
X+5335160Y-6396840D01*
X+4806840Y-6396840D01*
X+4806840Y-6925160D01*
D72*
X+5123832Y-6801884D02*
X+5018169Y-6801884D01*
X+5018169Y-6731442D01*
X+5053390Y-6696221D01*
X+5088611Y-6696221D01*
X+5123832Y-6731442D01*
X+5123832Y-6801884D01*
X+5053390Y-6625779D02*
X+5018169Y-6590558D01*
X+5123832Y-6590558D01*
D70*
X+4099100Y-5271900D02*
X+5292900Y-5271900D01*
X+5292900Y-5094100D01*
X+4099100Y-5094100D01*
X+4099100Y-5271900D01*
D73*
X+4610656Y-5215004D02*
X+4610656Y-5150996D01*
X+4663996Y-5150996D01*
X+4674664Y-5161664D01*
X+4674664Y-5172332D01*
X+4663996Y-5183000D01*
X+4610656Y-5183000D01*
X+4663996Y-5183000D02*
X+4674664Y-5193668D01*
X+4674664Y-5215004D01*
X+4717336Y-5172332D02*
X+4738672Y-5150996D01*
X+4738672Y-5215004D01*
D70*
X+42100Y-5260900D02*
X+1235900Y-5260900D01*
X+1235900Y-5083100D01*
X+42100Y-5083100D01*
X+42100Y-5260900D01*
D73*
X+553656Y-5204004D02*
X+553656Y-5139996D01*
X+606996Y-5139996D01*
X+617664Y-5150664D01*
X+617664Y-5161332D01*
X+606996Y-5172000D01*
X+553656Y-5172000D01*
X+606996Y-5172000D02*
X+617664Y-5182668D01*
X+617664Y-5204004D01*
X+649668Y-5150664D02*
X+660336Y-5139996D01*
X+692340Y-5139996D01*
X+703008Y-5150664D01*
X+703008Y-5161332D01*
X+692340Y-5172000D01*
X+660336Y-5172000D01*
X+649668Y-5182668D01*
X+649668Y-5204004D01*
X+703008Y-5204004D01*
D70*
X-1717900Y-5268900D02*
X-524100Y-5268900D01*
X-524100Y-5091100D01*
X-1717900Y-5091100D01*
X-1717900Y-5268900D01*
D73*
X-1206344Y-5212004D02*
X-1206344Y-5147996D01*
X-1153004Y-5147996D01*
X-1142336Y-5158664D01*
X-1142336Y-5169332D01*
X-1153004Y-5180000D01*
X-1206344Y-5180000D01*
X-1153004Y-5180000D02*
X-1142336Y-5190668D01*
X-1142336Y-5212004D01*
X-1110332Y-5158664D02*
X-1099664Y-5147996D01*
X-1067660Y-5147996D01*
X-1056992Y-5158664D01*
X-1056992Y-5169332D01*
X-1067660Y-5180000D01*
X-1056992Y-5190668D01*
X-1056992Y-5201336D01*
X-1067660Y-5212004D01*
X-1099664Y-5212004D01*
X-1110332Y-5201336D01*
X-1088996Y-5180000D02*
X-1067660Y-5180000D01*
D70*
X-2295900Y-7268900D02*
X-1102100Y-7268900D01*
X-1102100Y-7091100D01*
X-2295900Y-7091100D01*
X-2295900Y-7268900D01*
D73*
X-1784344Y-7212004D02*
X-1784344Y-7147996D01*
X-1731004Y-7147996D01*
X-1720336Y-7158664D01*
X-1720336Y-7169332D01*
X-1731004Y-7180000D01*
X-1784344Y-7180000D01*
X-1731004Y-7180000D02*
X-1720336Y-7190668D01*
X-1720336Y-7212004D01*
X-1634992Y-7190668D02*
X-1699000Y-7190668D01*
X-1656328Y-7147996D01*
X-1656328Y-7212004D01*
D70*
X-3292900Y-5266900D02*
X-2099100Y-5266900D01*
X-2099100Y-5089100D01*
X-3292900Y-5089100D01*
X-3292900Y-5266900D01*
D73*
X-2781344Y-5210004D02*
X-2781344Y-5145996D01*
X-2728004Y-5145996D01*
X-2717336Y-5156664D01*
X-2717336Y-5167332D01*
X-2728004Y-5178000D01*
X-2781344Y-5178000D01*
X-2728004Y-5178000D02*
X-2717336Y-5188668D01*
X-2717336Y-5210004D01*
X-2631992Y-5145996D02*
X-2685332Y-5145996D01*
X-2685332Y-5167332D01*
X-2642660Y-5167332D01*
X-2631992Y-5178000D01*
X-2631992Y-5199336D01*
X-2642660Y-5210004D01*
X-2674664Y-5210004D01*
X-2685332Y-5199336D01*
D70*
X-3926900Y-6944900D02*
X-3749100Y-6944900D01*
X-3749100Y-5751100D01*
X-3926900Y-5751100D01*
X-3926900Y-6944900D01*
D73*
X-3805996Y-6433344D02*
X-3870004Y-6433344D01*
X-3870004Y-6380004D01*
X-3859336Y-6369336D01*
X-3848668Y-6369336D01*
X-3838000Y-6380004D01*
X-3838000Y-6433344D01*
X-3838000Y-6380004D02*
X-3827332Y-6369336D01*
X-3805996Y-6369336D01*
X-3859336Y-6283992D02*
X-3870004Y-6294660D01*
X-3870004Y-6326664D01*
X-3859336Y-6337332D01*
X-3816664Y-6337332D01*
X-3805996Y-6326664D01*
X-3805996Y-6294660D01*
X-3816664Y-6283992D01*
X-3827332Y-6283992D01*
X-3838000Y-6294660D01*
X-3838000Y-6337332D01*
D19*
X+6320000Y-240800D02*
X+6320000Y-317000D01*
X+6396200Y-393200D01*
X+6472400Y-317000D01*
X+6472400Y-240800D01*
X+6523200Y-317000D02*
X+6675600Y-317000D01*
X+6599400Y-266200D02*
X+6599400Y-367800D01*
X+6320000Y-830800D02*
X+6320000Y-907000D01*
X+6396200Y-983200D01*
X+6472400Y-907000D01*
X+6472400Y-830800D01*
X+6548600Y-907000D02*
X+6675600Y-907000D01*
X+6441600Y-1532400D02*
X+6492400Y-1532400D01*
X+6492400Y-1583200D01*
X+6390800Y-1583200D01*
X+6340000Y-1532400D01*
X+6340000Y-1481600D01*
X+6390800Y-1430800D01*
X+6467000Y-1430800D01*
X+6492400Y-1456200D01*
X+6543200Y-1583200D02*
X+6543200Y-1430800D01*
X+6695600Y-1583200D01*
X+6695600Y-1430800D01*
X+6746400Y-1583200D02*
X+6746400Y-1430800D01*
X+6848000Y-1430800D01*
X+6898800Y-1481600D01*
X+6898800Y-1532400D01*
X+6848000Y-1583200D01*
X+6746400Y-1583200D01*
M02*
